<svg width="75" height="75" viewBox="0 0 75 75" fill="none" xmlns="http://www.w3.org/2000/svg">
<path d="M66.4391 11.8603L63.1251 8.54623C62.9053 8.32654 62.6073 8.20312 62.2965 8.20312C61.9858 8.20312 61.6878 8.32654 61.468 8.54623L55.7504 14.2638L54.0336 12.547C53.3735 11.8897 52.4798 11.5206 51.5481 11.5206C50.6165 11.5206 49.7227 11.8897 49.0626 12.547L45.6887 15.9208L44.0317 14.2638C43.3622 13.6244 42.472 13.2676 41.5461 13.2676C40.6203 13.2676 39.7301 13.6244 39.0606 14.2638L33.1004 20.2228C32.887 20.4438 32.7689 20.7398 32.7715 21.0471C32.7742 21.3544 32.8974 21.6483 33.1147 21.8656C33.332 22.0828 33.6259 22.2061 33.9332 22.2087C34.2404 22.2114 34.5365 22.0933 34.7575 21.8798L40.7188 15.9197C40.9418 15.7067 41.2384 15.5879 41.5467 15.5879C41.8551 15.5879 42.1516 15.7067 42.3747 15.9197L44.0317 17.5779L12.0477 49.5619C11.8279 49.7816 11.7044 50.0796 11.7043 50.3904V61.624L8.53208 64.7962C8.31862 65.0173 8.2005 65.3133 8.20317 65.6205C8.20584 65.9278 8.32908 66.2217 8.54636 66.439C8.76363 66.6563 9.05756 66.7795 9.36482 66.7822C9.67208 66.7849 9.9681 66.6667 10.1891 66.4533L13.3614 63.281H24.595C24.9056 63.2802 25.2033 63.1568 25.4235 62.9376L62.4383 25.924C62.7649 25.5975 63.0239 25.2099 63.2006 24.7833C63.3773 24.3568 63.4682 23.8996 63.4682 23.4378C63.4682 22.9761 63.3773 22.5189 63.2006 22.0923C63.0239 21.6658 62.7649 21.2782 62.4383 20.9517L60.7215 19.2349L66.4391 13.5173C66.6588 13.2976 66.7822 12.9996 66.7822 12.6888C66.7822 12.3781 66.6588 12.0801 66.4391 11.8603V11.8603ZM14.0481 60.9372V53.2193L21.7661 60.9372H14.0481ZM60.7813 22.6087C61.001 22.8285 61.1244 23.1265 61.1244 23.4372C61.1244 23.748 61.001 24.046 60.7813 24.2658L24.595 60.4521L20.3926 56.2497L52.3766 24.2658C52.5901 24.0447 52.7082 23.7487 52.7055 23.4415C52.7029 23.1342 52.5796 22.8403 52.3623 22.623C52.1451 22.4057 51.8511 22.2825 51.5439 22.2798C51.2366 22.2771 50.9406 22.3953 50.7196 22.6087L18.7356 54.5927L14.5333 50.3904L50.7196 14.2052C50.9393 13.9855 51.2374 13.8621 51.5481 13.8621C51.8588 13.8621 52.1569 13.9855 52.3766 14.2052L60.7813 22.6087ZM59.0645 17.5779L57.4075 15.9208L62.2965 11.0318L63.9536 12.6888L59.0645 17.5779Z" fill="white"/>
</svg>
