<svg width="75" height="75" viewBox="0 0 75 75" fill="none" xmlns="http://www.w3.org/2000/svg">
<path d="M58.875 10H21.375C20.4426 10 19.5484 10.3704 18.8891 11.0297C18.2298 11.689 17.8594 12.5832 17.8594 13.5156V15.8594H15.5156C14.5832 15.8594 13.689 16.2298 13.0297 16.8891C12.3704 17.5484 12 18.4426 12 19.375V54.5312C12.0057 54.8143 12.1083 55.0869 12.2906 55.3035L20.4938 64.6785C20.6056 64.8017 20.7415 64.9007 20.8931 64.9694C21.0446 65.0382 21.2086 65.0751 21.375 65.0781H53.0156C53.948 65.0781 54.8422 64.7077 55.5015 64.0484C56.1609 63.3891 56.5312 62.4949 56.5312 61.5625V59.2188H58.875C59.8074 59.2188 60.7016 58.8484 61.3609 58.189C62.0202 57.5297 62.3906 56.6355 62.3906 55.7031V13.5156C62.3906 12.5832 62.0202 11.689 61.3609 11.0297C60.7016 10.3704 59.8074 10 58.875 10V10ZM20.2031 60.7879L15.75 55.7031H20.2031V60.7879ZM54.1875 61.5625C54.1875 61.8733 54.064 62.1714 53.8443 62.3911C53.6245 62.6109 53.3264 62.7344 53.0156 62.7344H22.5469V54.5312C22.5469 54.2204 22.4234 53.9224 22.2036 53.7026C21.9839 53.4828 21.6858 53.3594 21.375 53.3594H14.3438V19.375C14.3438 19.0642 14.4672 18.7661 14.687 18.5464C14.9068 18.3266 15.2048 18.2031 15.5156 18.2031H53.0156C53.3264 18.2031 53.6245 18.3266 53.8443 18.5464C54.064 18.7661 54.1875 19.0642 54.1875 19.375V61.5625ZM60.0469 55.7031C60.0469 56.0139 59.9234 56.312 59.7036 56.5318C59.4839 56.7515 59.1858 56.875 58.875 56.875H56.5312V19.375C56.5312 18.4426 56.1609 17.5484 55.5015 16.8891C54.8422 16.2298 53.948 15.8594 53.0156 15.8594H20.2031V13.5156C20.2031 13.2048 20.3266 12.9068 20.5464 12.687C20.7661 12.4672 21.0642 12.3438 21.375 12.3438H58.875C59.1858 12.3438 59.4839 12.4672 59.7036 12.687C59.9234 12.9068 60.0469 13.2048 60.0469 13.5156V55.7031Z" fill="white"/>
<path d="M19.0312 27.5781H42.4688C42.7796 27.5781 43.0776 27.4547 43.2974 27.2349C43.5172 27.0151 43.6406 26.7171 43.6406 26.4062C43.6406 26.0954 43.5172 25.7974 43.2974 25.5776C43.0776 25.3578 42.7796 25.2344 42.4688 25.2344H19.0312C18.7204 25.2344 18.4224 25.3578 18.2026 25.5776C17.9828 25.7974 17.8594 26.0954 17.8594 26.4062C17.8594 26.7171 17.9828 27.0151 18.2026 27.2349C18.4224 27.4547 18.7204 27.5781 19.0312 27.5781Z" fill="white"/>
<path d="M49.5 34.6094H19.0312C18.7204 34.6094 18.4224 34.7328 18.2026 34.9526C17.9828 35.1724 17.8594 35.4704 17.8594 35.7812C17.8594 36.0921 17.9828 36.3901 18.2026 36.6099C18.4224 36.8297 18.7204 36.9531 19.0312 36.9531H49.5C49.8108 36.9531 50.1089 36.8297 50.3286 36.6099C50.5484 36.3901 50.6719 36.0921 50.6719 35.7812C50.6719 35.4704 50.5484 35.1724 50.3286 34.9526C50.1089 34.7328 49.8108 34.6094 49.5 34.6094Z" fill="white"/>
<path d="M43.6406 45.1562C43.6406 44.8454 43.5172 44.5474 43.2974 44.3276C43.0776 44.1078 42.7796 43.9844 42.4688 43.9844H19.0312C18.7204 43.9844 18.4224 44.1078 18.2026 44.3276C17.9828 44.5474 17.8594 44.8454 17.8594 45.1562C17.8594 45.4671 17.9828 45.7651 18.2026 45.9849C18.4224 46.2047 18.7204 46.3281 19.0312 46.3281H42.4688C42.7796 46.3281 43.0776 46.2047 43.2974 45.9849C43.5172 45.7651 43.6406 45.4671 43.6406 45.1562Z" fill="white"/>
<path d="M49.5 53.3594H27.2344C26.9236 53.3594 26.6255 53.4828 26.4057 53.7026C26.186 53.9224 26.0625 54.2204 26.0625 54.5312C26.0625 54.8421 26.186 55.1401 26.4057 55.3599C26.6255 55.5797 26.9236 55.7031 27.2344 55.7031H49.5C49.8108 55.7031 50.1089 55.5797 50.3286 55.3599C50.5484 55.1401 50.6719 54.8421 50.6719 54.5312C50.6719 54.2204 50.5484 53.9224 50.3286 53.7026C50.1089 53.4828 49.8108 53.3594 49.5 53.3594Z" fill="white"/>
</svg>
