<svg width="58" height="70" viewBox="0 0 58 70" fill="none" xmlns="http://www.w3.org/2000/svg">
<path d="M51.2345 0C51.2345 0 51.2804 0.367821 51.3571 1.05749C51.3877 1.39466 51.3877 1.83911 51.4031 2.34486C51.3877 2.85062 51.3877 3.44833 51.2958 4.10734C51.2498 4.42918 51.2345 4.79701 51.1578 5.1495C51.0812 5.502 51.0352 5.90047 50.928 6.28362C50.836 6.66676 50.744 7.09589 50.6061 7.50969C50.5448 7.72425 50.4835 7.93882 50.4069 8.15338C50.3456 8.36794 50.2536 8.5825 50.177 8.81239C49.5333 10.5749 48.5831 12.5059 47.2804 14.437C46.9585 14.9274 46.6061 15.4025 46.2382 15.893C46.0543 16.1382 45.8551 16.3681 45.6712 16.6133C45.5792 16.7359 45.4719 16.8585 45.38 16.9811C45.2727 17.1037 45.1807 17.211 45.0735 17.3336C44.9662 17.4562 44.8589 17.5788 44.7669 17.6861L44.6137 17.87C44.6137 17.87 44.5371 17.9313 44.5677 17.916L44.5524 17.9313L44.5217 17.9773L44.4451 18.0539C44.2459 18.2685 44.0466 18.483 43.8321 18.7129C43.3723 19.1727 42.8665 19.6784 42.3914 20.1076C40.445 21.916 38.2381 23.5866 35.8932 25.1345C33.5024 26.6824 31.0349 28.1077 28.5828 29.487C26.1307 30.8664 23.6785 32.215 21.349 33.625C19.0194 35.0197 16.8278 36.491 14.8508 38.0849L14.483 38.376L14.437 38.4067L14.4063 38.422C14.4217 38.4067 14.345 38.4833 14.437 38.3914L14.3297 38.4833L14.1305 38.6519L13.732 38.9891C13.6707 39.0504 13.5941 39.1117 13.5328 39.1577L13.3795 39.3109L13.0577 39.6021C12.9504 39.6941 12.8431 39.786 12.7358 39.9086C12.5213 40.1232 12.2914 40.3378 12.0768 40.5523C11.2186 41.4106 10.4216 42.3148 9.70129 43.2344C9.60934 43.357 9.51738 43.4642 9.42543 43.5715C9.33347 43.6941 9.25684 43.8014 9.16489 43.924C9.07293 44.0466 8.9963 44.1539 8.90435 44.2765C8.81239 44.3991 8.75109 44.5064 8.65913 44.629C8.33729 45.1041 8.0461 45.5792 7.7549 46.0543C7.20317 47.0199 6.74339 47.9854 6.36025 48.9662C6.31427 49.0888 6.26829 49.2115 6.22231 49.3341L6.14568 49.518L6.08438 49.7019C6.00775 49.9471 5.93112 50.1923 5.85449 50.4375C5.79319 50.6827 5.73189 50.928 5.67058 51.1732L5.6246 51.3571V51.3724C5.6246 51.3877 5.6246 51.2958 5.6246 51.3418L5.60928 51.4031L5.59395 51.5103C5.5633 51.6483 5.53265 51.7862 5.51732 51.9241C5.502 52.0314 5.47134 52.1387 5.45602 52.246C5.44069 52.292 5.44069 52.3533 5.42537 52.4146L5.39472 52.5985C5.36406 52.8437 5.33341 53.0736 5.30276 53.3188C5.25678 53.7939 5.24146 54.269 5.22613 54.7288C5.2108 56.5985 5.53265 58.361 6.0384 59.863C6.16101 60.2461 6.29894 60.5986 6.43688 60.9511C6.51351 61.1197 6.57481 61.3036 6.66676 61.4568C6.74339 61.6254 6.82002 61.794 6.89665 61.9473C7.2185 62.5756 7.55567 63.1274 7.89284 63.6331C8.06142 63.8783 8.23001 64.1082 8.39859 64.3228C8.56718 64.5373 8.73576 64.7213 8.88902 64.9205C9.21086 65.273 9.50206 65.5642 9.74727 65.7941C9.86988 65.9014 9.97716 66.0086 10.0844 66.1006C10.1764 66.1925 10.2684 66.2538 10.3297 66.3151C10.4676 66.4378 10.5289 66.4991 10.5289 66.4991C10.5289 66.4991 10.4369 66.4837 10.2684 66.4378C10.1764 66.4224 10.0691 66.3918 9.94651 66.3611C9.8239 66.3305 9.67064 66.2845 9.50206 66.2232C8.84304 66.0086 7.86219 65.6102 6.74339 64.8439C5.6246 64.0929 4.35255 62.9588 3.21844 61.3802C2.08432 59.8016 1.07281 57.7786 0.490429 55.3878C0.33717 54.7901 0.229889 54.1617 0.137933 53.518C0.107281 53.1962 0.0613036 52.8743 0.0459777 52.5372L0.0306519 52.292C0.0306519 52.2153 0.015326 52.1234 0.015326 52.0314C0.015326 51.8475 0 51.6636 0 51.4797C0 51.3264 0 51.1732 0 51.0352V50.928V50.8666C0 50.8973 0 50.79 0 50.79V50.7594L0.015326 50.4988C0.0306519 50.1617 0.0613036 49.8092 0.0766295 49.472C0.122607 49.1348 0.153259 48.7823 0.199237 48.4298L0.229888 48.1693L0.275866 47.9088C0.306518 47.7402 0.33717 47.5563 0.367822 47.3877C0.398473 47.2191 0.429125 47.0352 0.459777 46.8513C0.505755 46.6827 0.551732 46.4988 0.582384 46.3302C0.674339 45.9777 0.750969 45.6252 0.85825 45.2727C0.965532 44.9202 1.07281 44.5677 1.19542 44.2152C1.31803 43.8627 1.45596 43.5255 1.57857 43.173C1.7165 42.8359 1.86976 42.4834 2.02302 42.1462L2.1303 41.8857L2.25291 41.6405C2.32954 41.4719 2.42149 41.3033 2.49812 41.1347C2.59008 40.9661 2.66671 40.7975 2.75866 40.629C2.85062 40.4604 2.94257 40.2918 3.03453 40.1385C3.12648 39.9699 3.21844 39.8014 3.31039 39.6328C3.40235 39.4642 3.50963 39.3109 3.60159 39.1423C4.39853 37.8396 5.30276 36.5829 6.29894 35.4028C6.54416 35.1116 6.8047 34.8204 7.06524 34.5292C7.18785 34.3913 7.3411 34.2381 7.47904 34.0848L7.90816 33.6403L8.12273 33.4258L8.32196 33.2419L8.70511 32.874L8.88902 32.6901L8.98098 32.5982L9.13423 32.4602L9.56336 32.0618C11.8776 29.9775 14.437 28.1843 17.0117 26.6211C19.6018 25.0578 22.2226 23.7245 24.7666 22.4678C27.3107 21.211 29.7629 20.0616 32.0618 18.8815C34.3607 17.7014 36.5063 16.5213 38.4374 15.2799C38.9278 14.9581 39.3569 14.6669 39.8167 14.3604C40.0619 14.1765 40.3071 14.0079 40.537 13.8393L40.629 13.778L40.6749 13.7473L40.6903 13.732C40.7209 13.7014 40.6596 13.7627 40.6749 13.7473L40.8435 13.6247C40.9508 13.5481 41.0581 13.4561 41.1654 13.3795C41.2726 13.3029 41.3799 13.2262 41.4872 13.1343C41.5945 13.0577 41.6864 12.9657 41.7937 12.8891C41.993 12.7205 42.2075 12.5672 42.4068 12.3987C42.8052 12.0615 43.1884 11.7396 43.5562 11.3871C45.0428 10.0538 46.2842 8.65913 47.2804 7.3411C47.7861 6.68209 48.2153 6.0384 48.6137 5.42537C48.8283 5.11885 48.9816 4.81233 49.1502 4.52114C49.3187 4.22995 49.472 3.95408 49.6099 3.67821C49.6866 3.54028 49.7479 3.40235 49.8245 3.27974C49.8858 3.15713 49.9471 3.0192 50.0084 2.89659C50.131 2.65138 50.2383 2.40617 50.3302 2.1916C50.4222 1.96171 50.4988 1.76248 50.5755 1.57857C50.6521 1.37933 50.7287 1.21075 50.79 1.04216C51.0965 0.352496 51.2345 0 51.2345 0Z" fill="#EDEDED"/>
<path d="M49.472 13.6396C49.472 13.6396 49.4413 13.8542 49.38 14.2527C49.3341 14.4519 49.3187 14.6971 49.2728 14.973C49.2268 15.2489 49.2114 15.5707 49.1808 15.9232C49.1348 16.6282 49.1042 17.4864 49.1501 18.452C49.2114 19.4175 49.3187 20.475 49.5333 21.6244C49.7479 22.7739 50.0544 23.9846 50.4375 25.2567C50.4835 25.4099 50.5448 25.5785 50.5908 25.7318L50.6674 25.977L50.7134 26.0996C50.7134 26.0996 50.7287 26.1303 50.7134 26.0843V26.0996L50.7287 26.1303L50.744 26.1916C50.8666 26.5287 50.9739 26.8965 51.0965 27.2031C51.2191 27.5249 51.3417 27.8621 51.4644 28.1839C51.6023 28.5211 51.7249 28.8583 51.8628 29.2108C52.4146 30.5901 53.0123 32.0154 53.6406 33.502C54.2537 34.9886 54.882 36.5365 55.4491 38.1458L55.6483 38.7435L55.8476 39.3565C55.9855 39.7703 56.1081 40.1841 56.2307 40.5979C56.4759 41.4255 56.6905 42.2837 56.8744 43.1267C57.2269 44.8278 57.4568 46.575 57.4568 48.2915C57.4568 49.1497 57.4261 49.9927 57.3188 50.8203C57.2729 51.2341 57.2116 51.6479 57.1349 52.0463L57.1043 52.1996C57.089 52.3222 57.1043 52.2456 57.089 52.2762V52.2916L57.0736 52.3222L57.0583 52.3835C57.043 52.4755 57.0123 52.5674 56.997 52.6441C56.9817 52.736 56.951 52.8126 56.9357 52.9046L56.905 53.0425L56.8591 53.1958C56.7518 53.6096 56.6445 54.0234 56.5066 54.3759C56.4453 54.5598 56.384 54.7437 56.3073 54.9123C56.2307 55.0809 56.1541 55.2648 56.0928 55.4334C55.8016 56.123 55.4644 56.7667 55.1119 57.3491C54.3916 58.5292 53.564 59.4947 52.7517 60.2304C51.9395 60.9813 51.1119 61.4871 50.4375 61.8396C50.2689 61.9162 50.1003 62.0082 49.9471 62.0695C49.8705 62.1155 49.7938 62.1308 49.7172 62.1614C49.6406 62.1921 49.5639 62.2227 49.5026 62.2381C49.3647 62.284 49.2421 62.33 49.1195 62.376C48.9969 62.422 48.8896 62.4373 48.7976 62.4679C48.3992 62.5752 48.1999 62.6059 48.1999 62.6059C48.1999 62.6059 48.3532 62.4526 48.6444 62.1921C48.7976 62.0695 48.9509 61.8856 49.1501 61.6863C49.3494 61.4871 49.5486 61.2419 49.7632 60.966C50.1923 60.4143 50.6827 59.7246 51.1119 58.897C51.541 58.0694 51.9395 57.1039 52.2307 56.0157C52.3686 55.4793 52.5065 54.9123 52.5985 54.3299C52.6291 54.1766 52.6444 54.0387 52.6751 53.8854C52.6904 53.7322 52.7058 53.5789 52.7211 53.441C52.7671 53.1345 52.7671 52.8586 52.7977 52.5674V52.4601V52.3222C52.7977 52.2303 52.7977 52.1383 52.813 52.0463C52.813 51.9544 52.813 51.8624 52.8284 51.7705V51.7092V51.6785V51.6632C52.8284 51.6785 52.8284 51.6019 52.8284 51.7092V51.5866C52.813 51.2647 52.8284 50.9429 52.7977 50.6057C52.7824 50.2839 52.7517 49.9467 52.7211 49.6095C52.7058 49.4409 52.6751 49.2724 52.6598 49.1038C52.6444 48.9352 52.6291 48.7666 52.5985 48.598C52.5065 47.9084 52.3686 47.2187 52.2307 46.5137C52.154 46.1612 52.0774 45.8087 51.9854 45.4409C51.9088 45.0884 51.8015 44.7206 51.7096 44.3681C51.5103 43.6478 51.2804 42.9121 51.0506 42.1765C50.9279 41.8086 50.8053 41.4408 50.6827 41.073L50.4988 40.5213L50.2996 39.9542C49.7785 38.4523 49.2114 36.9197 48.675 35.3718C48.1386 33.8239 47.6482 32.2453 47.2497 30.682C47.1425 30.2836 47.0658 29.9004 46.9739 29.502C46.8819 29.1035 46.8053 28.7203 46.744 28.3219C46.7133 28.1226 46.6674 27.9081 46.6367 27.7395C46.606 27.5556 46.5907 27.3717 46.5601 27.1877L46.5447 27.1264V27.0958V27.0805C46.5294 27.0192 46.5447 27.0498 46.5294 27.0345L46.5141 26.8965C46.4988 26.8046 46.4834 26.6973 46.4834 26.6054C46.4681 26.4061 46.4375 26.2222 46.4221 26.0383C46.2689 24.521 46.2689 23.0651 46.3915 21.747C46.5141 20.4137 46.7593 19.2183 47.0811 18.1761C47.403 17.1493 47.7861 16.291 48.154 15.6167C48.2459 15.4481 48.3379 15.2948 48.4145 15.1416C48.4911 14.9883 48.5984 14.8657 48.675 14.7431C48.8436 14.4979 48.9816 14.2833 49.1042 14.1454C49.3341 13.8082 49.472 13.6396 49.472 13.6396Z" fill="#EDEDED"/>
<path d="M8.44458 55.0509C8.44458 55.0509 8.56719 55.2348 8.78175 55.572C8.99631 55.9091 9.33348 56.3996 9.76261 57.0279C10.1917 57.641 10.7435 58.3766 11.3872 59.1889C11.5557 59.3881 11.7243 59.5874 11.9082 59.8019C12.0921 60.0012 12.2761 60.2157 12.4753 60.4456C12.6745 60.6602 12.8738 60.8747 13.0883 61.1046C13.3029 61.3192 13.5175 61.5491 13.7473 61.7636C14.6516 62.6525 15.6937 63.5568 16.8585 64.3997C17.0118 64.507 17.1497 64.5989 17.3029 64.7062L17.5175 64.8595L17.7627 65.0127C17.916 65.12 18.0846 65.212 18.2378 65.3192C18.3911 65.4112 18.5597 65.5032 18.7129 65.5951C18.8662 65.6871 19.0348 65.779 19.2034 65.871C19.3719 65.9629 19.5405 66.0549 19.7091 66.1315C20.0463 66.3001 20.3988 66.4687 20.7513 66.6219C22.1766 67.2503 23.7092 67.7254 25.3031 67.986C26.1 68.1239 26.9123 68.1852 27.7246 68.2005C28.5368 68.2158 29.3491 68.1545 30.146 68.0473C30.3606 68.0166 30.5905 67.986 30.7744 67.94L31.3568 67.8174L31.9545 67.6641C32.1537 67.6181 32.3377 67.5415 32.5369 67.4955C33.3185 67.2503 34.0848 66.9591 34.8204 66.6219C35.5561 66.2848 36.2764 65.9016 36.9661 65.4878C37.6557 65.074 38.3148 64.6296 38.9584 64.1698C39.6021 63.71 40.1998 63.2196 40.7822 62.7445C41.0734 62.484 41.3799 62.2387 41.6405 61.9935C41.7784 61.8709 41.9163 61.7483 42.0389 61.6257C42.1769 61.5031 42.2995 61.3652 42.4374 61.2426C43.4642 60.2311 44.3685 59.2042 45.1194 58.1774C45.8704 57.1659 46.4681 56.1697 46.9279 55.2501C47.3877 54.3306 47.7248 53.4877 47.9394 52.7673C48.0007 52.5834 48.0467 52.4148 48.0927 52.2616C48.1386 52.093 48.1693 51.9551 48.2153 51.8018C48.2459 51.6639 48.2919 51.5259 48.3226 51.4033C48.3379 51.2807 48.3685 51.1734 48.3839 51.0662C48.4605 50.6677 48.5065 50.4531 48.5065 50.4531C48.5065 50.4531 48.5065 50.6677 48.4911 51.0815C48.4911 51.1888 48.4911 51.2961 48.4758 51.4187C48.4605 51.5413 48.4452 51.6792 48.4298 51.8325C48.4145 51.9857 48.3992 52.139 48.3839 52.3076C48.3685 52.4761 48.3226 52.6601 48.2919 52.844C48.1693 53.5949 47.9394 54.5145 47.5716 55.5107C47.2038 56.5222 46.6827 57.6256 45.993 58.7598C45.3034 59.8939 44.4451 61.0433 43.4183 62.1774C43.2957 62.3154 43.1731 62.4686 43.0351 62.6066C42.8972 62.7445 42.7593 62.8824 42.6213 63.0357C42.3455 63.3269 42.0696 63.5721 41.7937 63.848L41.6251 63.9706L41.5179 64.0779L41.288 64.2771C41.1347 64.415 40.9815 64.553 40.8282 64.6756C40.6749 64.8135 40.5217 64.9361 40.3531 65.074C40.1998 65.1966 40.0312 65.3346 39.8627 65.4572C38.56 66.484 37.104 67.4342 35.5101 68.2158C34.7132 68.599 33.8856 68.9362 33.012 69.212C32.7974 69.2733 32.5829 69.35 32.3683 69.4113L31.7093 69.5798C31.4794 69.6258 31.2495 69.6718 31.0196 69.7178C30.897 69.7484 30.7897 69.7638 30.6825 69.7791L30.3606 69.8251C29.4564 69.9477 28.5368 70.0243 27.6326 69.9936C26.7284 69.9783 25.8241 69.8864 24.9506 69.7178C24.077 69.5492 23.2187 69.3346 22.3911 69.0588L22.0846 68.9515L21.7781 68.8442C21.5789 68.7676 21.3796 68.6909 21.1804 68.6143C20.7819 68.4457 20.3988 68.2771 20.0156 68.0932C19.6325 67.9093 19.28 67.7101 18.9122 67.5109C18.7283 67.4036 18.5597 67.2963 18.3758 67.2043C18.2072 67.0971 18.0233 66.9898 17.8547 66.8825C17.6861 66.7752 17.5175 66.6526 17.3489 66.5453C17.1957 66.438 17.0424 66.3154 16.8891 66.2081L16.6593 66.0396C16.5826 65.9783 16.4907 65.917 16.414 65.8557C16.2608 65.733 16.1075 65.6104 15.9543 65.5032C14.7742 64.5376 13.7627 63.4955 12.9044 62.4993C12.0462 61.5031 11.3565 60.5069 10.7741 59.618C10.1917 58.7291 9.74728 57.9168 9.39479 57.2425C9.2262 56.9053 9.07294 56.5988 8.95034 56.3383C8.82773 56.0777 8.72045 55.8478 8.64382 55.6639C8.53654 55.2501 8.44458 55.0509 8.44458 55.0509Z" fill="#EDEDED"/>
<path d="M14.8201 51.847C14.8201 51.847 14.8355 51.8624 14.8814 51.9083C14.9121 51.9543 14.9734 52.0156 15.05 52.0922C15.188 52.2302 15.4485 52.4141 15.801 52.5214C16.1535 52.6286 16.5979 52.6746 17.0884 52.598C17.3336 52.552 17.5941 52.4907 17.824 52.3681C17.8853 52.3375 17.9619 52.3068 18.0232 52.2762C18.0845 52.2455 18.1458 52.2148 18.2072 52.1842C18.3298 52.1076 18.4677 52.0309 18.5903 51.939C19.1114 51.5865 19.6171 51.1114 20.2148 50.5903C20.506 50.3298 20.8432 50.0539 21.211 49.8087C21.5788 49.5481 21.9926 49.3183 22.4678 49.1343C22.9275 48.9504 23.4639 48.8278 24.0463 48.8431C24.1843 48.8431 24.3375 48.8585 24.4754 48.8738L24.69 48.9198C24.7513 48.9351 24.7973 48.9351 24.8586 48.9504C25.0119 48.9964 25.1651 49.0424 25.303 49.0884C25.4256 49.1343 25.5483 49.1956 25.6709 49.2416C26.146 49.4715 26.5598 49.7167 26.9276 49.9619C27.3107 50.2072 27.6479 50.4217 27.9851 50.5597C28.1537 50.6363 28.2916 50.6823 28.4448 50.7129C28.5215 50.7282 28.5828 50.7282 28.6594 50.7436C28.6901 50.7436 28.7207 50.7436 28.7667 50.7436H28.8127H28.8433H28.8586C28.874 50.7436 28.7667 50.7589 28.8127 50.7436L28.9813 50.7282L29.0579 50.7129C29.0885 50.7129 29.0885 50.6976 29.1039 50.6976C29.1192 50.6823 29.1498 50.6823 29.1805 50.6823C29.2111 50.6823 29.2571 50.6516 29.2878 50.6516C29.4257 50.6056 29.5943 50.529 29.7476 50.437C30.0694 50.2531 30.4066 49.9926 30.7897 49.7474C31.1729 49.4868 31.5867 49.2263 32.0924 49.0424C32.215 48.9964 32.353 48.9504 32.4756 48.9198L32.5215 48.9045H32.5522H32.5675L32.6135 48.8891L32.6901 48.8738L32.8434 48.8431H32.8894H32.9507L33.0579 48.8278C33.1346 48.8278 33.2112 48.8125 33.2725 48.8125C33.4104 48.8125 33.533 48.8125 33.6557 48.8431C34.1614 48.9045 34.6212 49.0424 35.0197 49.2263C35.8166 49.5941 36.4296 50.0386 36.9814 50.437C37.0427 50.483 37.1193 50.529 37.1806 50.575C37.2419 50.621 37.3185 50.6669 37.3798 50.7129C37.5025 50.8049 37.6251 50.8815 37.763 50.9581C38.0082 51.1114 38.2534 51.234 38.4986 51.3413C38.9737 51.5558 39.4182 51.6784 39.786 51.6938C40.1538 51.7091 40.4604 51.6631 40.6596 51.5865C40.7669 51.5558 40.8282 51.5252 40.8895 51.4945C40.9355 51.4792 40.9661 51.4639 40.9661 51.4639C40.9661 51.4639 40.9508 51.4792 40.9048 51.5252C40.8588 51.5558 40.7975 51.6171 40.7056 51.6784C40.5217 51.801 40.2305 51.9696 39.8167 52.0463C39.4029 52.1382 38.8665 52.1229 38.2841 52.0003C37.9929 51.939 37.7017 51.847 37.3798 51.7397C37.2266 51.6784 37.0733 51.6171 36.9047 51.5405C36.8281 51.5099 36.7515 51.4639 36.6749 51.4332C36.5982 51.4026 36.5216 51.3566 36.445 51.3259C35.8319 51.0348 35.1882 50.6976 34.5292 50.4983C34.2074 50.4064 33.8702 50.3298 33.5637 50.3298C33.4871 50.3298 33.4104 50.3451 33.3338 50.3451L33.2419 50.3604H33.1959H33.1806C33.1652 50.3604 33.1499 50.3604 33.1499 50.3757L32.9966 50.4064L32.92 50.4217C32.9966 50.4064 32.9353 50.4217 32.9507 50.4217H32.9353L32.9047 50.437C32.8281 50.4677 32.7668 50.483 32.6901 50.529C32.3989 50.6669 32.1077 50.8662 31.7706 51.1267C31.4487 51.3873 31.0809 51.6784 30.6518 51.9543C30.4219 52.0922 30.192 52.2302 29.9161 52.3375C29.8395 52.3681 29.7782 52.3988 29.7016 52.4141C29.6096 52.4447 29.533 52.4601 29.441 52.4754C29.3951 52.4907 29.3491 52.4907 29.3184 52.506L29.2418 52.5214L29.0732 52.552C29.1192 52.552 28.9966 52.5673 29.0119 52.552H28.9966H28.9659H28.9046H28.782C28.7054 52.552 28.6288 52.552 28.5521 52.552C28.3989 52.5367 28.2456 52.5214 28.0924 52.4907C27.8012 52.4294 27.51 52.3375 27.2648 52.2148C26.759 51.985 26.3452 51.7091 25.9774 51.4639C25.5942 51.2187 25.2571 50.9735 24.9352 50.8202C24.8586 50.7742 24.782 50.7436 24.69 50.7129C24.6134 50.6823 24.5674 50.6669 24.5061 50.6363C24.4601 50.621 24.3988 50.6056 24.3528 50.5903L24.2762 50.575L24.2302 50.5597H24.2149H24.1996C24.1536 50.5443 24.2456 50.575 24.2302 50.5597C24.1536 50.5443 24.077 50.529 24.0003 50.529C23.8471 50.5137 23.6938 50.5137 23.5252 50.5443C23.372 50.5597 23.2034 50.6056 23.0348 50.6516C22.6976 50.7436 22.3758 50.8968 22.0386 51.0807C21.7168 51.2493 21.4103 51.4639 21.0884 51.6784C20.4601 52.1076 19.8164 52.552 19.142 52.8585C18.9734 52.9352 18.8049 53.0118 18.6363 53.0731C18.5443 53.1037 18.4524 53.1344 18.3757 53.1651C18.2991 53.1804 18.2072 53.211 18.1305 53.2264C17.778 53.303 17.4562 53.3336 17.1497 53.3183C16.5366 53.2877 16.0309 53.1038 15.6631 52.8739C15.2952 52.644 15.096 52.3681 14.9887 52.1689C14.9274 52.0769 14.9121 52.0003 14.8814 51.939C14.8355 51.8624 14.8201 51.847 14.8201 51.847Z" fill="#EDEDED"/>
<path d="M16.6899 52.9508C16.6899 52.9508 16.7818 53.0121 16.9504 53.1194C17.119 53.242 17.3642 53.4106 17.6707 53.6252C17.9773 53.8397 18.3451 54.1003 18.7589 54.3915C19.1727 54.6826 19.6631 54.9892 20.1842 55.2804C20.4447 55.4336 20.7359 55.5562 21.0271 55.6942C21.3183 55.8168 21.6401 55.9547 21.962 56.062C22.1306 56.1233 22.2838 56.1846 22.4524 56.2306C22.529 56.2612 22.6057 56.2765 22.6823 56.3072C22.7743 56.3378 22.8662 56.3685 22.9582 56.3838L23.0961 56.4298C23.1421 56.4451 23.1727 56.4451 23.2187 56.4605C23.2953 56.4758 23.3873 56.5064 23.4639 56.5218C23.6325 56.5524 23.8164 56.5984 24.0003 56.629C24.7206 56.767 25.5023 56.8436 26.2992 56.8896C27.0962 56.9356 27.9238 56.9356 28.7667 56.9356C29.1805 56.9356 29.6096 56.9356 30.0234 56.9356C30.4372 56.9356 30.851 56.9356 31.2495 56.9202C31.648 56.9049 32.0311 56.8896 32.3989 56.8283C32.7667 56.7823 33.1346 56.721 33.4717 56.629L33.5943 56.5984L33.6556 56.5831L33.6863 56.5677H33.7016C33.7016 56.5677 33.6863 56.5831 33.7016 56.5677H33.7169L33.8549 56.5218L33.9315 56.5064L33.9928 56.4911C34.1461 56.4451 34.3147 56.3685 34.4679 56.3072C34.7744 56.1693 35.0963 56.0007 35.3875 55.8321C35.9699 55.4796 36.5063 55.0811 36.9814 54.698C37.2266 54.4987 37.4411 54.3148 37.6557 54.1156C37.8703 53.9317 38.0695 53.7478 38.2534 53.5639C38.6366 53.2114 38.9584 52.9048 39.2189 52.6443C39.4948 52.3838 39.694 52.1845 39.8473 52.0466C40.0006 51.9087 40.0772 51.832 40.0772 51.832C40.0772 51.832 40.0312 51.924 39.9239 52.1079C39.8167 52.2765 39.6787 52.537 39.4795 52.8589C39.2803 53.1807 39.035 53.5639 38.7438 53.993C38.4373 54.4221 38.0848 54.8972 37.6557 55.403C37.4411 55.6482 37.2113 55.9087 36.9507 56.1539C36.6902 56.3992 36.4143 56.6597 36.1078 56.9049C35.8013 57.1501 35.4794 57.38 35.1116 57.5946C34.9277 57.7019 34.7438 57.7938 34.5292 57.9011L34.4526 57.9317L34.3913 57.9624L34.2534 58.0237C34.1461 58.0697 34.0388 58.1003 33.9315 58.1463C33.5177 58.2996 33.0886 58.4068 32.6595 58.4988C32.2303 58.5754 31.7859 58.6367 31.3568 58.6827C30.9276 58.7287 30.4832 58.744 30.0541 58.7593C29.6249 58.7747 29.2111 58.7747 28.782 58.79C27.9238 58.8053 27.0502 58.79 26.1919 58.7287C25.7628 58.698 25.3337 58.6367 24.9046 58.5754C24.4754 58.4988 24.0616 58.4222 23.6478 58.3149C23.4486 58.2689 23.234 58.2076 23.0348 58.1463C22.9275 58.1157 22.8356 58.0697 22.7283 58.039L22.575 57.993L22.4371 57.9471C22.3451 57.9164 22.2532 57.8704 22.1766 57.8398L22.1459 57.8245H22.1306H22.1152L22.0846 57.8091L22.0233 57.7785L21.8854 57.7172C21.7014 57.6405 21.5329 57.5486 21.3643 57.4566C20.6746 57.1041 20.0616 56.6903 19.5405 56.2765C19.0194 55.8474 18.5903 55.4183 18.2378 55.0198C17.8853 54.6213 17.5941 54.2689 17.3795 53.9623C17.1497 53.6558 16.9811 53.4259 16.8738 53.2573C16.7512 53.0428 16.6899 52.9508 16.6899 52.9508Z" fill="#EDEDED"/>
<path d="M22.1153 39.6787C22.1153 39.6787 22.1306 39.6787 22.1459 39.6634C22.1766 39.6481 22.2073 39.6327 22.2532 39.6021C22.3605 39.5561 22.5138 39.4795 22.713 39.4335C22.9276 39.3875 23.1881 39.3569 23.4946 39.3569C23.8011 39.3722 24.1383 39.4182 24.4908 39.5255C24.6747 39.5714 24.8433 39.6327 25.0272 39.7094C25.2111 39.786 25.395 39.8626 25.5789 39.9393C25.7629 40.0312 25.9468 40.1232 26.1307 40.2151C26.2993 40.3071 26.4832 40.399 26.6671 40.491C27.0196 40.6749 27.3874 40.8435 27.7246 40.9508C28.0771 41.0734 28.3989 41.15 28.7054 41.15C28.7821 41.15 28.8587 41.15 28.9353 41.15H28.9966C28.9813 41.15 29.0273 41.15 28.966 41.15H28.9813H29.0273L29.1039 41.1347H29.1499H29.1652L29.2572 41.1193L29.3644 41.0887C29.4411 41.058 29.5177 41.0427 29.5943 41.0121C29.9162 40.8895 30.238 40.7055 30.5752 40.491C30.7438 40.3837 30.9124 40.2764 31.0809 40.1691C31.2495 40.0619 31.4181 39.9546 31.6174 39.832C31.8013 39.7247 32.0005 39.6327 32.1844 39.5561C32.3683 39.4795 32.5522 39.4182 32.7208 39.3569C32.8894 39.2956 33.0733 39.2649 33.2266 39.2343C33.3952 39.2036 33.5484 39.173 33.7017 39.173C33.9929 39.1423 34.2534 39.1576 34.468 39.1883C34.6825 39.2189 34.8358 39.2649 34.9431 39.3109C34.989 39.3262 35.035 39.3415 35.0657 39.3569C35.0963 39.3722 35.1117 39.3722 35.1117 39.3722C35.1117 39.3722 35.0504 39.3722 34.9431 39.4028C34.8358 39.4182 34.6825 39.4641 34.5139 39.5255C34.33 39.5868 34.1308 39.6787 33.9009 39.8013C33.7936 39.8626 33.671 39.9393 33.5484 40.0159C33.4258 40.0925 33.3032 40.1845 33.1653 40.2764C32.9047 40.4603 32.6442 40.6749 32.399 40.9048C32.2917 41.0121 32.1538 41.1653 32.0005 41.3033C31.8626 41.4412 31.7093 41.5944 31.5407 41.7477C31.2036 42.0542 30.8204 42.3607 30.33 42.606C30.2074 42.6673 30.0848 42.7286 29.9468 42.7745L29.7476 42.8512C29.671 42.8818 29.5943 42.8972 29.5177 42.9125L29.4564 42.9278L29.4104 42.9431L29.3338 42.9585L29.2878 42.9738H29.2725L29.2112 42.9891L29.1039 43.0044C28.9506 43.0198 28.8127 43.0198 28.6595 43.0351C28.0617 43.0198 27.51 42.8665 27.0502 42.6673C26.5751 42.468 26.1767 42.2075 25.8088 41.9469C25.6249 41.8243 25.4563 41.6864 25.3031 41.5638C25.1498 41.4412 24.9966 41.3186 24.8433 41.196C24.7054 41.0734 24.5521 40.9661 24.4295 40.8588C24.2916 40.7515 24.169 40.6596 24.031 40.5676C23.7705 40.3837 23.5253 40.2304 23.3107 40.1232C23.0808 40.0006 22.8663 39.9239 22.6977 39.8626C22.5138 39.8013 22.3605 39.7707 22.2532 39.7553C22.1766 39.694 22.1153 39.6787 22.1153 39.6787Z" fill="#EDEDED"/>
</svg>
