<svg width="330" height="69" viewBox="0 0 330 69" fill="none" xmlns="http://www.w3.org/2000/svg">
<path d="M49.9355 0C49.9355 0 49.9803 0.358495 50.0549 1.03067C50.0848 1.3593 50.0848 1.79248 50.0998 2.28541C50.0848 2.77834 50.0848 3.3609 49.9952 4.0032C49.9504 4.31688 49.9355 4.67538 49.8608 5.01894C49.7861 5.3625 49.7413 5.75087 49.6367 6.1243C49.5471 6.49773 49.4575 6.91598 49.323 7.31928C49.2633 7.52841 49.2035 7.73753 49.1288 7.94665C49.0691 8.15577 48.9795 8.3649 48.9048 8.58896C48.2774 10.3067 47.3513 12.1888 46.0816 14.071C45.7679 14.5489 45.4244 15.012 45.0659 15.49C44.8866 15.729 44.6924 15.9531 44.5132 16.192C44.4236 16.3115 44.319 16.431 44.2294 16.5505C44.1248 16.67 44.0352 16.7746 43.9306 16.8941C43.8261 17.0136 43.7215 17.1331 43.6319 17.2377L43.4825 17.4169C43.4825 17.4169 43.4078 17.4767 43.4377 17.4617L43.4228 17.4767L43.3929 17.5215L43.3182 17.5962C43.124 17.8053 42.9298 18.0144 42.7207 18.2385C42.2726 18.6866 41.7797 19.1795 41.3166 19.5978C39.4196 21.3604 37.2686 22.9885 34.9832 24.4972C32.653 26.0059 30.2481 27.395 27.8581 28.7394C25.4681 30.0837 23.0782 31.3982 20.8077 32.7725C18.5372 34.1318 16.4012 35.5657 14.4743 37.1192L14.1158 37.403L14.071 37.4329L14.0411 37.4478C14.056 37.4329 13.9813 37.5076 14.071 37.418L13.9664 37.5076L13.7722 37.6719L13.3838 38.0005C13.3241 38.0603 13.2494 38.12 13.1896 38.1648L13.0403 38.3142L12.7266 38.598C12.622 38.6876 12.5175 38.7773 12.4129 38.8968C12.2038 39.1059 11.9797 39.315 11.7706 39.5241C10.9341 40.3606 10.1574 41.2419 9.45532 42.1382C9.3657 42.2577 9.27607 42.3622 9.18645 42.4668C9.09683 42.5863 9.02214 42.6908 8.93251 42.8103C8.84289 42.9298 8.7682 43.0344 8.67858 43.1539C8.58896 43.2734 8.52921 43.378 8.43958 43.4975C8.1259 43.9605 7.84209 44.4236 7.55828 44.8866C7.02054 45.8277 6.57242 46.7687 6.19899 47.7247C6.15417 47.8442 6.10936 47.9637 6.06455 48.0832L5.98986 48.2625L5.93011 48.4417C5.85543 48.6807 5.78074 48.9197 5.70605 49.1587C5.64631 49.3977 5.58656 49.6367 5.52681 49.8757L5.48199 50.0549V50.0699C5.48199 50.0848 5.48199 49.9952 5.48199 50.04L5.46706 50.0998L5.45212 50.2043C5.42225 50.3387 5.39237 50.4732 5.37743 50.6076C5.3625 50.7122 5.33262 50.8167 5.31768 50.9213C5.30275 50.9661 5.30275 51.0259 5.28781 51.0856L5.25793 51.2649C5.22806 51.5039 5.19819 51.7279 5.16831 51.9669C5.1235 52.43 5.10856 52.893 5.09362 53.3412C5.07869 55.1635 5.39237 56.8813 5.8853 58.3451C6.0048 58.7186 6.13924 59.0621 6.27367 59.4057C6.34836 59.57 6.40811 59.7493 6.49773 59.8986C6.57242 60.0629 6.64711 60.2272 6.72179 60.3766C7.03548 60.9891 7.3641 61.5268 7.69272 62.0197C7.85703 62.2587 8.02134 62.4828 8.18565 62.6919C8.34996 62.901 8.51427 63.0803 8.66364 63.2745C8.97733 63.618 9.26114 63.9018 9.50013 64.1259C9.61963 64.2305 9.72419 64.335 9.82875 64.4246C9.91838 64.5143 10.008 64.574 10.0678 64.6338C10.2022 64.7533 10.2619 64.813 10.2619 64.813C10.2619 64.813 10.1723 64.7981 10.008 64.7533C9.91838 64.7383 9.81382 64.7084 9.69432 64.6786C9.57482 64.6487 9.42545 64.6039 9.26114 64.5441C8.61883 64.335 7.66284 63.9466 6.57242 63.1998C5.482 62.4678 4.2422 61.3625 3.13684 59.8239C2.03147 58.2854 1.04561 56.3137 0.477994 53.9835C0.328621 53.4009 0.22406 52.7885 0.134436 52.1611C0.104561 51.8474 0.0597493 51.5337 0.044812 51.2051L0.0298747 50.9661C0.0298747 50.8914 0.0149374 50.8018 0.0149374 50.7122C0.0149374 50.5329 0 50.3537 0 50.1744C0 50.0251 0 49.8757 0 49.7413V49.6367V49.5769C0 49.6068 0 49.5023 0 49.5023V49.4724L0.0149374 49.2185C0.0298747 48.8898 0.0597493 48.5463 0.0746866 48.2176C0.119499 47.889 0.149373 47.5455 0.194185 47.2019L0.22406 46.948L0.268872 46.694C0.298746 46.5297 0.328621 46.3505 0.358496 46.1862C0.38837 46.0219 0.418245 45.8426 0.448119 45.6634C0.492931 45.4991 0.537743 45.3198 0.567618 45.1555C0.657242 44.8119 0.731929 44.4684 0.83649 44.1248C0.941051 43.7813 1.04561 43.4377 1.16511 43.0942C1.28461 42.7506 1.41905 42.422 1.53854 42.0784C1.67298 41.7498 1.82235 41.4062 1.97173 41.0776L2.07629 40.8237L2.19579 40.5847C2.27047 40.4204 2.3601 40.2561 2.43478 40.0918C2.52441 39.9274 2.59909 39.7631 2.68872 39.5988C2.77834 39.4345 2.86796 39.2702 2.95759 39.1208C3.04721 38.9565 3.13684 38.7922 3.22646 38.6279C3.31608 38.4636 3.42065 38.3142 3.51027 38.1499C4.28701 36.8802 5.16831 35.6554 6.13924 34.5052C6.37823 34.2214 6.63217 33.9376 6.8861 33.6538C7.0056 33.5193 7.15497 33.37 7.28941 33.2206L7.70765 32.7874L7.91678 32.5783L8.11096 32.399L8.4844 32.0405L8.66364 31.8613L8.75327 31.7717L8.90264 31.6372L9.32089 31.2489C11.5764 29.2174 14.071 27.4697 16.5804 25.9461C19.1048 24.4225 21.6591 23.123 24.1387 21.8981C26.6183 20.6732 29.0083 19.5529 31.2489 18.4028C33.4895 17.2526 35.5807 16.1024 37.4628 14.8925C37.9408 14.5788 38.359 14.295 38.8071 13.9963C39.0461 13.817 39.2851 13.6527 39.5092 13.4884L39.5988 13.4286L39.6436 13.3988L39.6586 13.3838C39.6884 13.354 39.6287 13.4137 39.6436 13.3988L39.8079 13.2793C39.9125 13.2046 40.0171 13.115 40.1216 13.0403C40.2262 12.9656 40.3308 12.8909 40.4353 12.8013C40.5399 12.7266 40.6295 12.637 40.7341 12.5623C40.9282 12.398 41.1374 12.2486 41.3316 12.0843C41.7199 11.7557 42.0934 11.442 42.4519 11.0984C43.9008 9.79888 45.1107 8.43958 46.0816 7.15497C46.5746 6.51267 46.9928 5.8853 47.3812 5.28781C47.5903 4.98906 47.7397 4.69032 47.904 4.40651C48.0683 4.1227 48.2177 3.85383 48.3521 3.58496C48.4268 3.45052 48.4865 3.31608 48.5612 3.19659C48.621 3.07709 48.6807 2.94265 48.7405 2.82315C48.86 2.58416 48.9645 2.34516 49.0541 2.13604C49.1438 1.91198 49.2185 1.71779 49.2931 1.53854C49.3678 1.34436 49.4425 1.18005 49.5023 1.01574C49.801 0.343558 49.9355 0 49.9355 0Z" fill="white"/>
<path d="M48.2176 13.2943C48.2176 13.2943 48.1878 13.5034 48.128 13.8917C48.0832 14.0859 48.0683 14.3249 48.0234 14.5938C47.9786 14.8627 47.9637 15.1764 47.9338 15.5199C47.889 16.207 47.8591 17.0435 47.9039 17.9846C47.9637 18.9256 48.0683 19.9563 48.2774 21.0766C48.4865 22.1969 48.7852 23.3769 49.1587 24.6167C49.2035 24.7661 49.2632 24.9304 49.3081 25.0798L49.3827 25.3188L49.4276 25.4383C49.4276 25.4383 49.4425 25.4682 49.4276 25.4234V25.4383L49.4425 25.4682L49.4574 25.5279C49.5769 25.8565 49.6815 26.215 49.801 26.5138C49.9205 26.8275 50.04 27.1561 50.1595 27.4698C50.2939 27.7984 50.4134 28.127 50.5478 28.4706C51.0856 29.8149 51.6681 31.2041 52.2806 32.653C52.8781 34.1019 53.4905 35.6106 54.0432 37.179L54.2374 37.7616L54.4316 38.3591C54.566 38.7624 54.6855 39.1657 54.805 39.569C55.044 40.3756 55.2531 41.2121 55.4324 42.0336C55.7759 43.6917 56 45.3945 56 47.0675C56 47.904 55.9701 48.7256 55.8655 49.5322C55.8207 49.9355 55.761 50.3388 55.6863 50.7272L55.6564 50.8765C55.6415 50.996 55.6564 50.9213 55.6415 50.9512V50.9662L55.6265 50.996L55.6116 51.0558C55.5967 51.1454 55.5668 51.235 55.5518 51.3097C55.5369 51.3993 55.507 51.474 55.4921 51.5636L55.4622 51.6981L55.4174 51.8475C55.3129 52.2508 55.2083 52.6541 55.0739 52.9976C55.0141 53.1769 54.9544 53.3561 54.8797 53.5204C54.805 53.6847 54.7303 53.864 54.6705 54.0283C54.3867 54.7005 54.0581 55.3279 53.7146 55.8955C53.0125 57.0456 52.2059 57.9867 51.4142 58.7037C50.6225 59.4356 49.8159 59.9285 49.1587 60.2721C48.9944 60.3468 48.8301 60.4364 48.6807 60.4962C48.606 60.541 48.5313 60.5559 48.4566 60.5858C48.3819 60.6157 48.3073 60.6455 48.2475 60.6605C48.1131 60.7053 47.9936 60.7501 47.8741 60.7949C47.7546 60.8397 47.65 60.8547 47.5604 60.8845C47.172 60.9891 46.9778 61.019 46.9778 61.019C46.9778 61.019 47.1272 60.8696 47.411 60.6157C47.5604 60.4962 47.7098 60.3169 47.9039 60.1227C48.0981 59.9285 48.2923 59.6895 48.5014 59.4207C48.9197 58.8829 49.3977 58.2108 49.8159 57.4041C50.2342 56.5975 50.6225 55.6565 50.9063 54.5959C51.0408 54.0731 51.1752 53.5204 51.2648 52.9528C51.2947 52.8034 51.3097 52.669 51.3395 52.5196C51.3545 52.3703 51.3694 52.2209 51.3843 52.0865C51.4292 51.7877 51.4292 51.5188 51.459 51.235V51.1305V50.996C51.459 50.9064 51.459 50.8168 51.474 50.7272C51.474 50.6375 51.474 50.5479 51.4889 50.4583V50.3985V50.3687V50.3537C51.4889 50.3687 51.4889 50.294 51.4889 50.3985V50.279C51.474 49.9654 51.4889 49.6517 51.459 49.3231C51.4441 49.0094 51.4142 48.6807 51.3843 48.3521C51.3694 48.1878 51.3395 48.0235 51.3246 47.8592C51.3097 47.6949 51.2947 47.5306 51.2648 47.3663C51.1752 46.6941 51.0408 46.0219 50.9063 45.3348C50.8317 44.9912 50.757 44.6477 50.6674 44.2892C50.5927 43.9456 50.4881 43.5871 50.3985 43.2436C50.2043 42.5415 49.9802 41.8245 49.7562 41.1075C49.6367 40.749 49.5172 40.3905 49.3977 40.032L49.2184 39.4943L49.0242 38.9416C48.5164 37.4778 47.9637 35.984 47.4409 34.4754C46.9181 32.9667 46.4401 31.4282 46.0517 29.9045C45.9472 29.5162 45.8725 29.1427 45.7828 28.7544C45.6932 28.366 45.6185 27.9926 45.5588 27.6042C45.5289 27.41 45.4841 27.2009 45.4542 27.0366C45.4244 26.8573 45.4094 26.6781 45.3795 26.4988L45.3646 26.4391V26.4092V26.3943C45.3497 26.3345 45.3646 26.3644 45.3497 26.3495L45.3347 26.215C45.3198 26.1254 45.3049 26.0208 45.3049 25.9312C45.2899 25.737 45.26 25.5578 45.2451 25.3785C45.0957 23.8997 45.0957 22.4807 45.2152 21.1961C45.3347 19.8965 45.5737 18.7314 45.8874 17.7157C46.2011 16.7149 46.5745 15.8784 46.933 15.2212C47.0226 15.0569 47.1123 14.9075 47.187 14.7581C47.2616 14.6087 47.3662 14.4892 47.4409 14.3697C47.6052 14.1307 47.7396 13.9216 47.8591 13.7872C48.0832 13.4586 48.2176 13.2943 48.2176 13.2943Z" fill="white"/>
<path d="M8.23047 53.6548C8.23047 53.6548 8.34997 53.8341 8.55909 54.1627C8.76821 54.4913 9.09683 54.9693 9.51508 55.5818C9.93332 56.1792 10.4711 56.8962 11.0984 57.6879C11.2627 57.8821 11.4271 58.0763 11.6063 58.2854C11.7855 58.4796 11.9648 58.6887 12.159 58.9128C12.3532 59.1219 12.5474 59.331 12.7565 59.5551C12.9656 59.7642 13.1747 59.9883 13.3988 60.1974C14.2801 61.0638 15.2958 61.945 16.4311 62.7666C16.5804 62.8712 16.7149 62.9608 16.8642 63.0653L17.0734 63.2147L17.3124 63.3641C17.4617 63.4687 17.626 63.5583 17.7754 63.6628C17.9248 63.7525 18.0891 63.8421 18.2385 63.9317C18.3878 64.0213 18.5522 64.111 18.7165 64.2006C18.8808 64.2902 19.0451 64.3798 19.2094 64.4545C19.538 64.6188 19.8816 64.7831 20.2251 64.9325C21.6143 65.5449 23.108 66.008 24.6615 66.2619C25.4383 66.3964 26.2299 66.4561 27.0216 66.4711C27.8133 66.486 28.605 66.4262 29.3817 66.3217C29.5908 66.2918 29.8149 66.2619 29.9941 66.2171L30.5618 66.0976L31.1443 65.9483C31.3385 65.9034 31.5177 65.8288 31.7119 65.7839C32.4737 65.5449 33.2206 65.2611 33.9376 64.9325C34.6546 64.6039 35.3566 64.2305 36.0288 63.8272C36.701 63.4238 37.3433 62.9907 37.9707 62.5425C38.598 62.0944 39.1806 61.6164 39.7482 61.1534C40.032 60.8994 40.3308 60.6604 40.5847 60.4214C40.7191 60.3019 40.8536 60.1824 40.9731 60.063C41.1075 59.9435 41.227 59.809 41.3614 59.6895C42.3622 58.7037 43.2435 57.7029 43.9755 56.7021C44.7074 55.7162 45.29 54.7453 45.7381 53.849C46.1862 52.9528 46.5148 52.1312 46.7239 51.4292C46.7837 51.2499 46.8285 51.0856 46.8733 50.9363C46.9181 50.7719 46.948 50.6375 46.9928 50.4881C47.0227 50.3537 47.0675 50.2193 47.0974 50.0998C47.1123 49.9803 47.1422 49.8757 47.1571 49.7711C47.2318 49.3828 47.2766 49.1736 47.2766 49.1736C47.2766 49.1736 47.2766 49.3828 47.2617 49.7861C47.2617 49.8906 47.2617 49.9952 47.2467 50.1147C47.2318 50.2342 47.2169 50.3686 47.2019 50.518C47.187 50.6674 47.1721 50.8168 47.1571 50.9811C47.1422 51.1454 47.0974 51.3246 47.0675 51.5039C46.948 52.2358 46.7239 53.132 46.3654 54.103C46.0069 55.0888 45.4991 56.1643 44.8269 57.2697C44.1547 58.375 43.3182 59.4953 42.3174 60.6007C42.1979 60.7351 42.0784 60.8845 41.944 61.0189C41.8096 61.1534 41.6751 61.2878 41.5407 61.4372C41.2718 61.721 41.0029 61.96 40.7341 62.2289L40.5698 62.3484L40.4652 62.4529L40.2411 62.6471C40.0918 62.7815 39.9424 62.916 39.793 63.0355C39.6436 63.1699 39.4943 63.2894 39.33 63.4238C39.1806 63.5433 39.0163 63.6778 38.852 63.7973C37.5823 64.7981 36.1632 65.7242 34.6098 66.486C33.833 66.8594 33.0264 67.188 32.175 67.4569C31.9659 67.5167 31.7567 67.5914 31.5476 67.6511L30.9053 67.8154C30.6813 67.8602 30.4572 67.905 30.2331 67.9499C30.1136 67.9797 30.0091 67.9947 29.9045 68.0096L29.5908 68.0544C28.7095 68.1739 27.8133 68.2486 26.932 68.2187C26.0507 68.2038 25.1694 68.1142 24.318 67.9499C23.4665 67.7855 22.63 67.5764 21.8234 67.3075L21.5247 67.203L21.2259 67.0984C21.0317 67.0237 20.8376 66.949 20.6434 66.8744C20.255 66.7101 19.8816 66.5457 19.5081 66.3665C19.1347 66.1872 18.7912 65.9931 18.4327 65.7989C18.2534 65.6943 18.0891 65.5898 17.9099 65.5001C17.7455 65.3956 17.5663 65.291 17.402 65.1864C17.2377 65.0819 17.0734 64.9624 16.909 64.8578C16.7597 64.7533 16.6103 64.6338 16.4609 64.5292L16.2369 64.3649C16.1622 64.3051 16.0726 64.2454 15.9979 64.1856C15.8485 64.0661 15.6991 63.9467 15.5498 63.8421C14.3996 62.901 13.4137 61.8853 12.5772 60.9144C11.7407 59.9434 11.0686 58.9725 10.5009 58.1062C9.93332 57.2398 9.50014 56.4481 9.15658 55.7909C8.99227 55.4623 8.8429 55.1635 8.7234 54.9096C8.6039 54.6556 8.49934 54.4316 8.42465 54.2523C8.32009 53.849 8.23047 53.6548 8.23047 53.6548Z" fill="white"/>
<path d="M14.4444 50.5329C14.4444 50.5329 14.4593 50.5479 14.5041 50.5927C14.534 50.6375 14.5938 50.6972 14.6685 50.7719C14.8029 50.9064 15.0568 51.0856 15.4004 51.1902C15.7439 51.2947 16.1771 51.3395 16.6551 51.2649C16.8941 51.2201 17.1481 51.1603 17.3721 51.0408C17.4319 51.0109 17.5065 50.9811 17.5663 50.9512C17.626 50.9213 17.6858 50.8914 17.7455 50.8616C17.865 50.7869 17.9995 50.7122 18.119 50.6226C18.6268 50.279 19.1198 49.8159 19.7023 49.3081C19.9861 49.0541 20.3148 48.7853 20.6733 48.5463C21.0318 48.2923 21.4351 48.0683 21.8981 47.889C22.3462 47.7098 22.869 47.5903 23.4367 47.6052C23.5711 47.6052 23.7205 47.6202 23.8549 47.6351L24.064 47.6799C24.1238 47.6948 24.1686 47.6948 24.2283 47.7098C24.3777 47.7546 24.5271 47.7994 24.6615 47.8442C24.781 47.889 24.9005 47.9488 25.02 47.9936C25.4831 48.2177 25.8864 48.4566 26.2449 48.6956C26.6183 48.9346 26.9469 49.1438 27.2756 49.2782C27.4399 49.3529 27.5743 49.3977 27.7237 49.4276C27.7984 49.4425 27.8581 49.4425 27.9328 49.4575C27.9627 49.4575 27.9925 49.4575 28.0374 49.4575H28.0822H28.112H28.127C28.1419 49.4575 28.0374 49.4724 28.0822 49.4575L28.2465 49.4425L28.3212 49.4276C28.351 49.4276 28.351 49.4126 28.366 49.4126C28.3809 49.3977 28.4108 49.3977 28.4407 49.3977C28.4705 49.3977 28.5153 49.3678 28.5452 49.3678C28.6797 49.323 28.844 49.2483 28.9933 49.1587C29.307 48.9795 29.6356 48.7255 30.0091 48.4865C30.3825 48.2326 30.7858 47.9787 31.2788 47.7994C31.3983 47.7546 31.5327 47.7098 31.6522 47.6799L31.697 47.665H31.7269H31.7418L31.7866 47.65L31.8613 47.6351L32.0107 47.6052H32.0555H32.1152L32.2198 47.5903C32.2945 47.5903 32.3692 47.5753 32.4289 47.5753C32.5634 47.5753 32.6829 47.5753 32.8024 47.6052C33.2953 47.665 33.7434 47.7994 34.1318 47.9787C34.9085 48.3371 35.506 48.7703 36.0438 49.1587C36.1035 49.2035 36.1782 49.2483 36.2379 49.2931C36.2977 49.338 36.3724 49.3828 36.4321 49.4276C36.5516 49.5172 36.6711 49.5919 36.8056 49.6666C37.0446 49.8159 37.2836 49.9354 37.5226 50.04C37.9856 50.2491 38.4188 50.3686 38.7773 50.3836C39.1358 50.3985 39.4345 50.3537 39.6287 50.279C39.7333 50.2491 39.793 50.2193 39.8528 50.1894C39.8976 50.1744 39.9275 50.1595 39.9275 50.1595C39.9275 50.1595 39.9125 50.1744 39.8677 50.2192C39.8229 50.2491 39.7631 50.3089 39.6735 50.3686C39.4943 50.4881 39.2105 50.6524 38.8072 50.7271C38.4039 50.8167 37.881 50.8018 37.3134 50.6823C37.0296 50.6226 36.7458 50.5329 36.4321 50.4284C36.2828 50.3686 36.1334 50.3089 35.9691 50.2342C35.8944 50.2043 35.8197 50.1595 35.745 50.1296C35.6703 50.0998 35.5956 50.0549 35.521 50.0251C34.9235 49.7413 34.2961 49.4126 33.6538 49.2185C33.3401 49.1288 33.0115 49.0541 32.7127 49.0541C32.638 49.0541 32.5634 49.0691 32.4887 49.0691L32.3991 49.084H32.3542H32.3393C32.3244 49.084 32.3094 49.084 32.3094 49.099L32.1601 49.1288L32.0854 49.1438C32.1601 49.1288 32.1003 49.1438 32.1152 49.1438H32.1003L32.0704 49.1587C31.9957 49.1886 31.936 49.2035 31.8613 49.2483C31.5775 49.3828 31.2937 49.5769 30.9651 49.8309C30.6514 50.0848 30.2929 50.3686 29.8746 50.6375C29.6506 50.7719 29.4265 50.9064 29.1577 51.0109C29.083 51.0408 29.0232 51.0707 28.9485 51.0856C28.8589 51.1155 28.7842 51.1304 28.6946 51.1454C28.6498 51.1603 28.605 51.1603 28.5751 51.1752L28.5004 51.1902L28.3361 51.2201C28.3809 51.2201 28.2614 51.235 28.2764 51.2201H28.2614H28.2315H28.1718H28.0523C27.9776 51.2201 27.9029 51.2201 27.8282 51.2201C27.6789 51.2051 27.5295 51.1902 27.3801 51.1603C27.0963 51.1006 26.8125 51.0109 26.5735 50.8914C26.0806 50.6674 25.6773 50.3985 25.3188 50.1595C24.9453 49.9205 24.6167 49.6815 24.303 49.5321C24.2283 49.4873 24.1537 49.4574 24.064 49.4276C23.9893 49.3977 23.9445 49.3828 23.8848 49.3529C23.84 49.338 23.7802 49.323 23.7354 49.3081L23.6607 49.2931L23.6159 49.2782H23.601H23.586C23.5412 49.2633 23.6308 49.2931 23.6159 49.2782C23.5412 49.2633 23.4665 49.2483 23.3918 49.2483C23.2425 49.2334 23.0931 49.2334 22.9288 49.2633C22.7794 49.2782 22.6151 49.323 22.4508 49.3678C22.1222 49.4574 21.8085 49.6068 21.4799 49.7861C21.1662 49.9504 20.8674 50.1595 20.5538 50.3686C19.9413 50.7869 19.314 51.2201 18.6567 51.5188C18.4924 51.5935 18.3281 51.6682 18.1638 51.7279C18.0742 51.7578 17.9845 51.7877 17.9099 51.8175C17.8352 51.8325 17.7455 51.8624 17.6709 51.8773C17.3273 51.952 17.0136 51.9819 16.7149 51.9669C16.1174 51.937 15.6244 51.7578 15.2659 51.5337C14.9075 51.3097 14.7133 51.0408 14.6087 50.8466C14.549 50.757 14.534 50.6823 14.5041 50.6226C14.4593 50.5479 14.4444 50.5329 14.4444 50.5329Z" fill="white"/>
<path d="M16.2667 51.6084C16.2667 51.6084 16.3563 51.6682 16.5207 51.7727C16.685 51.8922 16.924 52.0566 17.2227 52.2657C17.5215 52.4748 17.88 52.7287 18.2833 53.0125C18.6866 53.2963 19.1646 53.5951 19.6724 53.8789C19.9264 54.0283 20.2102 54.1478 20.494 54.2822C20.7778 54.4017 21.0915 54.5361 21.4052 54.6407C21.5695 54.7005 21.7188 54.7602 21.8832 54.805C21.9578 54.8349 22.0325 54.8498 22.1072 54.8797C22.1968 54.9096 22.2865 54.9395 22.3761 54.9544L22.5105 54.9992C22.5553 55.0141 22.5852 55.0141 22.63 55.0291C22.7047 55.044 22.7943 55.0739 22.869 55.0888C23.0333 55.1187 23.2126 55.1635 23.3918 55.1934C24.0939 55.3278 24.8557 55.4025 25.6324 55.4473C26.4092 55.4921 27.2158 55.4921 28.0373 55.4921C28.4406 55.4921 28.8589 55.4921 29.2622 55.4921C29.6655 55.4921 30.0688 55.4921 30.4572 55.4772C30.8455 55.4623 31.219 55.4473 31.5775 55.3876C31.936 55.3428 32.2945 55.283 32.6231 55.1934L32.7426 55.1635L32.8023 55.1486L32.8322 55.1336H32.8471C32.8471 55.1336 32.8322 55.1486 32.8471 55.1336H32.8621L32.9965 55.0888L33.0712 55.0739L33.131 55.059C33.2803 55.0141 33.4446 54.9395 33.594 54.8797C33.8928 54.7453 34.2064 54.581 34.4902 54.4166C35.0579 54.0731 35.5807 53.6847 36.0437 53.3113C36.2827 53.1171 36.4918 52.9379 36.701 52.7437C36.9101 52.5644 37.1043 52.3852 37.2835 52.2059C37.657 51.8624 37.9706 51.5636 38.2246 51.3097C38.4934 51.0558 38.6876 50.8616 38.837 50.7271C38.9864 50.5927 39.0611 50.518 39.0611 50.518C39.0611 50.518 39.0163 50.6076 38.9117 50.7869C38.8071 50.9512 38.6727 51.2051 38.4785 51.5188C38.2843 51.8325 38.0453 52.2059 37.7615 52.6242C37.4628 53.0424 37.1192 53.5055 36.701 53.9984C36.4918 54.2374 36.2678 54.4913 36.0139 54.7303C35.7599 54.9693 35.491 55.2233 35.1923 55.4623C34.8936 55.7013 34.5799 55.9253 34.2214 56.1344C34.0421 56.239 33.8629 56.3286 33.6538 56.4332L33.5791 56.4631L33.5193 56.4929L33.3849 56.5527C33.2803 56.5975 33.1758 56.6274 33.0712 56.6722C32.6679 56.8216 32.2497 56.9261 31.8314 57.0157C31.4132 57.0904 30.98 57.1502 30.5617 57.195C30.1435 57.2398 29.7103 57.2547 29.2921 57.2697C28.8738 57.2846 28.4705 57.2846 28.0523 57.2996C27.2158 57.3145 26.3643 57.2995 25.5279 57.2398C25.1096 57.2099 24.6914 57.1502 24.2731 57.0904C23.8549 57.0157 23.4516 56.9411 23.0483 56.8365C22.8541 56.7917 22.645 56.7319 22.4508 56.6722C22.3462 56.6423 22.2566 56.5975 22.152 56.5676L22.0027 56.5228L21.8682 56.478C21.7786 56.4481 21.689 56.4033 21.6143 56.3734L21.5844 56.3585H21.5695H21.5545L21.5247 56.3436L21.4649 56.3137L21.3305 56.2539C21.1512 56.1793 20.9869 56.0896 20.8226 56C20.1504 55.6564 19.5529 55.2531 19.0451 54.8498C18.5372 54.4316 18.1189 54.0133 17.7754 53.625C17.4318 53.2366 17.148 52.893 16.9389 52.5943C16.7148 52.2955 16.5505 52.0715 16.446 51.9072C16.3265 51.6981 16.2667 51.6084 16.2667 51.6084Z" fill="white"/>
<path d="M21.5546 38.6727C21.5546 38.6727 21.5695 38.6727 21.5844 38.6577C21.6143 38.6428 21.6442 38.6279 21.689 38.598C21.7936 38.5532 21.9429 38.4785 22.1371 38.4337C22.3462 38.3889 22.6002 38.359 22.8989 38.359C23.1977 38.3739 23.5263 38.4187 23.8698 38.5233C24.0491 38.5681 24.2134 38.6279 24.3927 38.7025C24.5719 38.7772 24.7512 38.8519 24.9304 38.9266C25.1096 39.0162 25.2889 39.1058 25.4681 39.1955C25.6325 39.2851 25.8117 39.3747 25.9909 39.4643C26.3345 39.6436 26.693 39.8079 27.0216 39.9125C27.3652 40.032 27.6789 40.1067 27.9776 40.1067C28.0523 40.1067 28.127 40.1067 28.2017 40.1067H28.2614C28.2465 40.1067 28.2913 40.1067 28.2315 40.1067H28.2465H28.2913L28.366 40.0917H28.4108H28.4257L28.5154 40.0768L28.6199 40.0469C28.6946 40.017 28.7693 40.0021 28.844 39.9722C29.1577 39.8527 29.4713 39.6735 29.8 39.4643C29.9643 39.3598 30.1286 39.2552 30.2929 39.1507C30.4572 39.0461 30.6215 38.9415 30.8157 38.822C30.9949 38.7175 31.1891 38.6279 31.3684 38.5532C31.5476 38.4785 31.7269 38.4187 31.8912 38.359C32.0555 38.2992 32.2347 38.2694 32.3841 38.2395C32.5484 38.2096 32.6978 38.1797 32.8472 38.1797C33.131 38.1499 33.3849 38.1648 33.594 38.1947C33.8032 38.2245 33.9525 38.2694 34.0571 38.3142C34.1019 38.3291 34.1467 38.344 34.1766 38.359C34.2065 38.3739 34.2214 38.3739 34.2214 38.3739C34.2214 38.3739 34.1617 38.3739 34.0571 38.4038C33.9525 38.4187 33.8032 38.4635 33.6389 38.5233C33.4596 38.583 33.2654 38.6727 33.0414 38.7922C32.9368 38.8519 32.8173 38.9266 32.6978 39.0013C32.5783 39.076 32.4588 39.1656 32.3244 39.2552C32.0704 39.4345 31.8165 39.6436 31.5775 39.8677C31.4729 39.9722 31.3385 40.1216 31.1891 40.256C31.0547 40.3905 30.9053 40.5398 30.741 40.6892C30.4124 40.988 30.039 41.2867 29.561 41.5257C29.4415 41.5854 29.322 41.6452 29.1875 41.69L28.9933 41.7647C28.9187 41.7946 28.844 41.8095 28.7693 41.8244L28.7095 41.8394L28.6647 41.8543L28.59 41.8693L28.5452 41.8842H28.5303L28.4705 41.8991L28.366 41.9141C28.2166 41.929 28.0822 41.929 27.9328 41.9439C27.3502 41.929 26.8125 41.7796 26.3644 41.5854C25.9013 41.3913 25.513 41.1373 25.1545 40.8834C24.9752 40.7639 24.8109 40.6295 24.6615 40.51C24.5122 40.3905 24.3628 40.271 24.2134 40.1515C24.079 40.032 23.9296 39.9274 23.8101 39.8228C23.6757 39.7183 23.5562 39.6287 23.4217 39.539C23.1678 39.3598 22.9288 39.2104 22.7197 39.1058C22.4956 38.9863 22.2865 38.9117 22.1222 38.8519C21.9429 38.7922 21.7936 38.7623 21.689 38.7474C21.6143 38.6876 21.5546 38.6727 21.5546 38.6727Z" fill="white"/>
<path d="M97.7969 26.0039H103.973C104.637 25.9805 105.242 25.8906 105.789 25.7344C106.023 25.6719 106.23 25.6406 106.41 25.6406C107.043 25.6406 107.656 26.1094 108.25 27.0469C108.852 27.9844 109.152 28.9492 109.152 29.9414C109.152 30.6211 108.945 31.1172 108.531 31.4297C108.219 31.6641 107.844 31.7812 107.406 31.7812C106.992 31.7812 106.633 31.668 106.328 31.4414C106.023 31.207 105.723 30.8242 105.426 30.293C105.168 29.8086 104.965 29.4922 104.816 29.3438C104.668 29.1953 104.488 29.1211 104.277 29.1211C103.988 29.1211 103.781 29.2422 103.656 29.4844C103.531 29.7266 103.469 30.125 103.469 30.6797V37.2422C103.469 37.9141 103.539 38.4023 103.68 38.707C103.82 39.0117 104.086 39.2461 104.477 39.4102C104.898 39.5898 105.184 39.7617 105.332 39.9258C105.488 40.082 105.566 40.3008 105.566 40.582C105.566 41.1445 105.184 41.5625 104.418 41.8359C103.66 42.1094 102.492 42.2461 100.914 42.2461C98.9766 42.2461 97.5391 42.0859 96.6016 41.7656C95.8125 41.5 95.418 41.0703 95.418 40.4766C95.418 40.1562 95.5586 39.9062 95.8398 39.7266C95.9102 39.6875 96.1875 39.5938 96.6719 39.4453C96.9688 39.3594 97.1719 39.1953 97.2812 38.9531C97.3984 38.7109 97.4922 38.2461 97.5625 37.5586C97.625 36.9492 97.6836 35.9648 97.7383 34.6055C97.793 33.2383 97.8203 32.0547 97.8203 31.0547C97.8203 30.3516 97.7656 29.8516 97.6562 29.5547C97.5469 29.2578 97.3672 29.1094 97.1172 29.1094C96.8125 29.1094 96.5156 29.3281 96.2266 29.7656C95.7031 30.5625 95.2734 31.0898 94.9375 31.3477C94.5391 31.6523 94.1523 31.8047 93.7773 31.8047C93.3555 31.8047 93.0078 31.6484 92.7344 31.3359C92.4609 31.0156 92.3242 30.6094 92.3242 30.1172C92.3242 29.6328 92.4336 29.1016 92.6523 28.5234C92.8711 27.9375 93.1641 27.3984 93.5312 26.9062C94.125 26.1094 94.7109 25.7109 95.2891 25.7109C95.4453 25.7109 95.625 25.7344 95.8281 25.7812C96.25 25.8672 96.5938 25.9258 96.8594 25.957C97.1328 25.9883 97.4453 26.0039 97.7969 26.0039ZM114.695 30.3984C115.109 30.3984 115.359 30.457 115.445 30.5742C115.539 30.6914 115.621 31.0664 115.691 31.6992C115.73 32.043 115.852 32.2148 116.055 32.2148C116.211 32.2148 116.359 32.1016 116.5 31.875C117.125 30.8984 117.941 30.4102 118.949 30.4102C119.66 30.4102 120.242 30.6406 120.695 31.1016C120.914 31.3281 121.094 31.6211 121.234 31.9805C121.375 32.332 121.445 32.6719 121.445 33C121.445 33.3672 121.359 33.7461 121.188 34.1367C121.016 34.5195 120.793 34.8359 120.52 35.0859C120.02 35.5625 119.406 35.8008 118.68 35.8008C118.281 35.8008 117.945 35.7305 117.672 35.5898C117.406 35.4492 117.055 35.1641 116.617 34.7344C116.453 34.5703 116.301 34.4883 116.16 34.4883C115.941 34.4883 115.797 34.6133 115.727 34.8633C115.664 35.1055 115.633 35.6211 115.633 36.4102C115.633 37.5898 115.676 38.3945 115.762 38.8242C115.816 39.0586 115.891 39.2227 115.984 39.3164C116.086 39.4023 116.297 39.4922 116.617 39.5859C117.32 39.7969 117.672 40.1641 117.672 40.6875C117.672 41.0078 117.559 41.2891 117.332 41.5312C117.105 41.7656 116.805 41.9219 116.43 42C115.68 42.1562 114.578 42.2344 113.125 42.2344C111.742 42.2344 110.691 42.1133 109.973 41.8711C109.332 41.6523 109.012 41.2734 109.012 40.7344C109.012 40.3281 109.246 39.9648 109.715 39.6445C109.941 39.4961 110.098 39.3633 110.184 39.2461C110.27 39.1211 110.328 38.9531 110.359 38.7422C110.484 38.0312 110.547 36.7148 110.547 34.793C110.547 34.4414 110.508 34.1914 110.43 34.043C110.352 33.8867 110.195 33.7617 109.961 33.668C109.406 33.4492 109.129 33.1328 109.129 32.7188C109.129 32.3438 109.32 32.0234 109.703 31.7578C110.086 31.4844 110.727 31.2148 111.625 30.9492C112.828 30.5898 113.852 30.4062 114.695 30.3984ZM128.629 30.9961V37.3477C128.629 38.707 129.078 39.3867 129.977 39.3867C130.203 39.3867 130.426 39.3242 130.645 39.1992C130.863 39.0664 131.016 38.9062 131.102 38.7188C131.273 38.3438 131.359 37.5078 131.359 36.2109C131.359 34.9297 131.316 34.0547 131.23 33.5859C131.199 33.3906 131.145 33.25 131.066 33.1641C130.988 33.0703 130.84 32.9648 130.621 32.8477C130.176 32.6133 129.953 32.3164 129.953 31.957C129.953 31.4727 130.336 31.1367 131.102 30.9492C132.555 30.5898 133.988 30.4102 135.402 30.4102C136.191 30.4102 136.586 30.8281 136.586 31.6641C136.586 31.75 136.582 31.9258 136.574 32.1914C136.559 32.5664 136.547 33.0234 136.539 33.5625V38.7305C136.539 38.9961 136.766 39.2383 137.219 39.457C137.602 39.6445 137.793 39.918 137.793 40.2773C137.793 40.9805 136.961 41.5234 135.297 41.9062C134.32 42.1328 133.375 42.2461 132.461 42.2461C132.086 42.2461 131.828 42.2031 131.688 42.1172C131.555 42.0312 131.477 41.8633 131.453 41.6133C131.414 41.1289 131.266 40.8867 131.008 40.8867C130.914 40.8867 130.828 40.9102 130.75 40.957C130.672 40.9961 130.434 41.1523 130.035 41.4258C129.246 41.9648 128.398 42.2344 127.492 42.2344C125.992 42.2344 124.934 41.8008 124.316 40.9336C123.793 40.207 123.531 38.9844 123.531 37.2656C123.531 36.625 123.535 36.0781 123.543 35.625C123.543 35.3594 123.543 35.1797 123.543 35.0859C123.543 34.4141 123.48 33.9219 123.355 33.6094C123.238 33.2891 123.02 33.0391 122.699 32.8594C122.395 32.7031 122.199 32.5781 122.113 32.4844C122.035 32.3906 121.996 32.2617 121.996 32.0977C121.996 31.5039 122.445 31.1094 123.344 30.9141C124.875 30.5781 126.406 30.4102 127.938 30.4102C128.398 30.4102 128.629 30.6055 128.629 30.9961ZM149.301 36.75H143.793C143.551 36.75 143.43 36.8555 143.43 37.0664C143.43 37.5742 143.703 38.0547 144.25 38.5078C144.805 38.9531 145.398 39.1758 146.031 39.1758C146.406 39.1758 146.82 39.1055 147.273 38.9648C147.734 38.8164 148.113 38.6367 148.41 38.4258C148.676 38.2383 148.887 38.1445 149.043 38.1445C149.246 38.1445 149.445 38.2695 149.641 38.5195C149.836 38.7695 149.934 39.0273 149.934 39.293C149.934 39.8555 149.582 40.3984 148.879 40.9219C147.637 41.8516 146.203 42.3164 144.578 42.3164C142.938 42.3164 141.562 41.8398 140.453 40.8867C139.914 40.418 139.469 39.8516 139.117 39.1875C138.656 38.3047 138.426 37.375 138.426 36.3984C138.426 35.0859 138.824 33.9062 139.621 32.8594C140.309 31.9531 141.184 31.2773 142.246 30.832C143.043 30.4961 143.906 30.3281 144.836 30.3281C146.32 30.3281 147.582 30.75 148.621 31.5938C149.145 32.0156 149.566 32.5156 149.887 33.0938C150.254 33.75 150.438 34.3906 150.438 35.0156C150.438 35.5234 150.332 35.9414 150.121 36.2695C149.91 36.5898 149.637 36.75 149.301 36.75ZM144.098 34.5586H145.281C145.781 34.5586 146.031 34.3281 146.031 33.8672C146.031 33.4453 145.91 33.1016 145.668 32.8359C145.426 32.5703 145.109 32.4375 144.719 32.4375C144.281 32.4375 143.938 32.6094 143.688 32.9531C143.453 33.2734 143.336 33.5977 143.336 33.9258C143.336 34.1602 143.391 34.3242 143.5 34.418C143.617 34.5117 143.816 34.5586 144.098 34.5586ZM162.262 25.7461C164.699 25.7461 165.918 26.25 165.918 27.2578C165.918 27.5312 165.855 27.7539 165.73 27.9258C165.605 28.0977 165.367 28.2891 165.016 28.5C164.711 28.6875 164.516 28.9336 164.43 29.2383C164.352 29.543 164.312 30.1602 164.312 31.0898C164.312 31.6367 164.414 31.9727 164.617 32.0977C164.734 32.1758 164.91 32.2227 165.145 32.2383C165.387 32.2539 165.949 32.2617 166.832 32.2617C167.637 32.2617 168.137 32.2188 168.332 32.1328C168.527 32.0469 168.625 31.832 168.625 31.4883C168.625 30.457 168.578 29.7383 168.484 29.332C168.391 28.9258 168.207 28.6484 167.934 28.5C167.59 28.3047 167.363 28.1406 167.254 28.0078C167.145 27.8672 167.09 27.6836 167.09 27.457C167.09 27.1367 167.211 26.8477 167.453 26.5898C167.695 26.3242 168.012 26.1445 168.402 26.0508C169.215 25.8555 170.234 25.7578 171.461 25.7578C172.898 25.7578 173.957 25.8906 174.637 26.1562C175.324 26.4141 175.668 26.8203 175.668 27.375C175.668 27.8438 175.426 28.1953 174.941 28.4297C174.637 28.5703 174.438 28.707 174.344 28.8398C174.25 28.9648 174.176 29.2031 174.121 29.5547C174.09 29.75 174.051 30.6172 174.004 32.1562C173.957 33.6953 173.934 34.918 173.934 35.8242C173.934 37.4102 173.992 38.418 174.109 38.8477C174.172 39.082 174.242 39.2383 174.32 39.3164C174.398 39.3945 174.645 39.5508 175.059 39.7852C175.355 39.9492 175.504 40.1992 175.504 40.5352C175.504 41.1289 175.148 41.5625 174.438 41.8359C173.734 42.1016 172.59 42.2344 171.004 42.2344C169.613 42.2344 168.586 42.0977 167.922 41.8242C167.32 41.5742 167.02 41.1875 167.02 40.6641C167.02 40.2188 167.25 39.8711 167.711 39.6211C167.938 39.4961 168.09 39.3711 168.168 39.2461C168.254 39.1211 168.336 38.8906 168.414 38.5547C168.555 37.8984 168.625 37.0938 168.625 36.1406C168.625 35.6484 168.551 35.3438 168.402 35.2266C168.262 35.1094 167.887 35.0508 167.277 35.0508C165.879 35.0508 164.988 35.1289 164.605 35.2852C164.449 35.3477 164.352 35.5312 164.312 35.8359C164.266 36.2109 164.242 36.6719 164.242 37.2188C164.242 38.1094 164.367 38.75 164.617 39.1406C164.703 39.2656 164.906 39.4258 165.227 39.6211C165.555 39.8086 165.719 40.1172 165.719 40.5469C165.719 41.0938 165.34 41.5117 164.582 41.8008C163.824 42.0898 162.742 42.2344 161.336 42.2344C160.055 42.2344 159.008 42.1016 158.195 41.8359C157.844 41.7188 157.566 41.5547 157.363 41.3438C157.168 41.125 157.07 40.8867 157.07 40.6289C157.07 40.3711 157.133 40.1719 157.258 40.0312C157.383 39.8906 157.656 39.7109 158.078 39.4922C158.297 39.3828 158.449 39.2422 158.535 39.0703C158.629 38.8984 158.699 38.6094 158.746 38.2031C158.863 37.2891 158.922 36.0938 158.922 34.6172C158.922 34.3438 158.918 34.0195 158.91 33.6445C158.879 31.7695 158.863 30.6992 158.863 30.4336C158.871 29.7617 158.812 29.3203 158.688 29.1094C158.57 28.8906 158.254 28.6523 157.738 28.3945C157.395 28.2305 157.223 27.9844 157.223 27.6562C157.223 26.8672 157.988 26.3203 159.52 26.0156C160.41 25.8359 161.324 25.7461 162.262 25.7461ZM183.133 30.3164C184.492 30.3164 185.645 30.6602 186.59 31.3477C187.09 31.7148 187.438 32.1367 187.633 32.6133C187.836 33.082 187.938 33.7305 187.938 34.5586L187.914 36.3047C187.914 37.5156 188 38.3008 188.172 38.6602C188.258 38.832 188.34 38.9414 188.418 38.9883C188.496 39.0352 188.66 39.0781 188.91 39.1172C189.16 39.1562 189.285 39.3203 189.285 39.6094C189.285 39.9844 189.133 40.375 188.828 40.7812C188.531 41.1875 188.145 41.5273 187.668 41.8008C187.082 42.1445 186.469 42.3164 185.828 42.3164C185.008 42.3164 184.359 42.0352 183.883 41.4727C183.719 41.2695 183.566 41.168 183.426 41.168C183.27 41.168 183.062 41.2656 182.805 41.4609C182.023 42.0312 181.137 42.3164 180.145 42.3164C179.121 42.3164 178.293 42.0977 177.66 41.6602C177.246 41.3711 176.918 40.9961 176.676 40.5352C176.434 40.0664 176.312 39.5781 176.312 39.0703C176.312 38.2578 176.641 37.5391 177.297 36.9141C178.32 35.9297 179.852 35.4336 181.891 35.4258C182.344 35.4258 182.629 35.3828 182.746 35.2969C182.863 35.2031 182.922 34.9922 182.922 34.6641C182.922 33.8359 182.836 33.2383 182.664 32.8711C182.492 32.4961 182.211 32.3086 181.82 32.3086C181.586 32.3086 181.375 32.3789 181.188 32.5195C181.008 32.6602 180.781 32.918 180.508 33.293C179.812 34.2852 179.086 34.7812 178.328 34.7812C177.945 34.7812 177.633 34.668 177.391 34.4414C177.148 34.2148 177.027 33.918 177.027 33.5508C177.027 33.1758 177.176 32.8008 177.473 32.4258C177.777 32.0508 178.188 31.7227 178.703 31.4414C180.117 30.6914 181.594 30.3164 183.133 30.3164ZM182.348 37.1016C182.004 37.1016 181.703 37.2422 181.445 37.5234C181.195 37.8047 181.07 38.1406 181.07 38.5312C181.07 38.9062 181.16 39.2109 181.34 39.4453C181.52 39.6719 181.758 39.7852 182.055 39.7852C182.68 39.7852 182.992 39.2578 182.992 38.2031C182.992 37.7734 182.945 37.4844 182.852 37.3359C182.766 37.1875 182.598 37.1094 182.348 37.1016ZM196.574 31.1367V37.9453C196.574 38.4844 196.621 38.8789 196.715 39.1289C196.816 39.3789 197.016 39.6094 197.312 39.8203C197.555 39.9922 197.715 40.1406 197.793 40.2656C197.879 40.3828 197.922 40.5352 197.922 40.7227C197.922 41.7305 196.645 42.2344 194.09 42.2344C192.715 42.2344 191.625 42.125 190.82 41.9062C190.547 41.8281 190.324 41.6914 190.152 41.4961C189.988 41.3008 189.906 41.0781 189.906 40.8281C189.906 40.6172 189.949 40.4531 190.035 40.3359C190.121 40.2188 190.34 40.0312 190.691 39.7734C190.934 39.5938 191.105 39.3008 191.207 38.8945C191.309 38.4883 191.359 37.8828 191.359 37.0781C191.359 36.8203 191.34 36.3398 191.301 35.6367C191.27 34.9258 191.246 34.5117 191.23 34.3945C191.184 34.0742 190.965 33.8281 190.574 33.6562C190.09 33.4453 189.848 33.1328 189.848 32.7188C189.848 32.2266 190.164 31.8594 190.797 31.6172C191.672 31.2812 192.609 30.9961 193.609 30.7617C194.609 30.5273 195.383 30.4102 195.93 30.4102C196.359 30.4102 196.574 30.6523 196.574 31.1367ZM194.254 26.0039C194.934 26.0039 195.473 26.1328 195.871 26.3906C196.27 26.6406 196.469 26.9805 196.469 27.4102C196.469 28.0117 196.168 28.4883 195.566 28.8398C194.613 29.3945 193.461 29.6719 192.109 29.6719C191.539 29.6719 191.086 29.5625 190.75 29.3438C190.297 29.0625 190.07 28.6719 190.07 28.1719C190.07 27.5 190.551 26.9727 191.512 26.5898C192.488 26.1992 193.402 26.0039 194.254 26.0039ZM204.086 30.3984C204.5 30.3984 204.75 30.457 204.836 30.5742C204.93 30.6914 205.012 31.0664 205.082 31.6992C205.121 32.043 205.242 32.2148 205.445 32.2148C205.602 32.2148 205.75 32.1016 205.891 31.875C206.516 30.8984 207.332 30.4102 208.34 30.4102C209.051 30.4102 209.633 30.6406 210.086 31.1016C210.305 31.3281 210.484 31.6211 210.625 31.9805C210.766 32.332 210.836 32.6719 210.836 33C210.836 33.3672 210.75 33.7461 210.578 34.1367C210.406 34.5195 210.184 34.8359 209.91 35.0859C209.41 35.5625 208.797 35.8008 208.07 35.8008C207.672 35.8008 207.336 35.7305 207.062 35.5898C206.797 35.4492 206.445 35.1641 206.008 34.7344C205.844 34.5703 205.691 34.4883 205.551 34.4883C205.332 34.4883 205.188 34.6133 205.117 34.8633C205.055 35.1055 205.023 35.6211 205.023 36.4102C205.023 37.5898 205.066 38.3945 205.152 38.8242C205.207 39.0586 205.281 39.2227 205.375 39.3164C205.477 39.4023 205.688 39.4922 206.008 39.5859C206.711 39.7969 207.062 40.1641 207.062 40.6875C207.062 41.0078 206.949 41.2891 206.723 41.5312C206.496 41.7656 206.195 41.9219 205.82 42C205.07 42.1562 203.969 42.2344 202.516 42.2344C201.133 42.2344 200.082 42.1133 199.363 41.8711C198.723 41.6523 198.402 41.2734 198.402 40.7344C198.402 40.3281 198.637 39.9648 199.105 39.6445C199.332 39.4961 199.488 39.3633 199.574 39.2461C199.66 39.1211 199.719 38.9531 199.75 38.7422C199.875 38.0312 199.938 36.7148 199.938 34.793C199.938 34.4414 199.898 34.1914 199.82 34.043C199.742 33.8867 199.586 33.7617 199.352 33.668C198.797 33.4492 198.52 33.1328 198.52 32.7188C198.52 32.3438 198.711 32.0234 199.094 31.7578C199.477 31.4844 200.117 31.2148 201.016 30.9492C202.219 30.5898 203.242 30.4062 204.086 30.3984ZM250.691 41.9883L249.121 42C248.02 42.0156 247.215 42.0391 246.707 42.0703C246.254 42.1094 245.93 42.1289 245.734 42.1289C245.258 42.1289 244.879 42.0078 244.598 41.7656C244.324 41.5234 244.188 41.2344 244.188 40.8984C244.188 40.6797 244.238 40.5078 244.34 40.3828C244.441 40.2578 244.688 40.0625 245.078 39.7969C245.305 39.6406 245.461 39.3984 245.547 39.0703C245.633 38.7344 245.727 38.0195 245.828 36.9258C245.977 35.2227 246.051 33.125 246.051 30.6328C246.051 29.7188 245.988 29.1133 245.863 28.8164C245.746 28.5117 245.465 28.2617 245.02 28.0664C244.504 27.8477 244.246 27.5273 244.246 27.1055C244.246 26.7617 244.398 26.4805 244.703 26.2617C245.016 26.043 245.414 25.9336 245.898 25.9336C246.164 25.9336 246.504 25.9453 246.918 25.9688C247.605 26 248.348 26.0156 249.145 26.0156C249.73 26.0156 250.883 25.9922 252.602 25.9453C253.141 25.9297 253.629 25.9219 254.066 25.9219C255.105 25.9219 255.941 26.0078 256.574 26.1797C257.215 26.3438 257.77 26.625 258.238 27.0234C259.004 27.6719 259.387 28.5391 259.387 29.625C259.387 30.1641 259.273 30.6914 259.047 31.207C258.82 31.7148 258.516 32.1211 258.133 32.4258C257.859 32.6445 257.723 32.8438 257.723 33.0234C257.723 33.2188 257.887 33.3828 258.215 33.5156C258.855 33.7734 259.438 34.207 259.961 34.8164C260.5 35.4492 260.77 36.2422 260.77 37.1953C260.77 38.3203 260.359 39.3477 259.539 40.2773C258.453 41.5039 256.848 42.1172 254.723 42.1172C254.434 42.1172 253.723 42.0977 252.59 42.0586C251.559 42.0195 250.926 41.9961 250.691 41.9883ZM251.5 29.2734V31.6875C251.5 32.0703 251.547 32.3398 251.641 32.4961C251.742 32.6523 251.914 32.7305 252.156 32.7305C252.734 32.7305 253.16 32.5547 253.434 32.2031C253.707 31.8438 253.844 31.2852 253.844 30.5273C253.844 29.793 253.703 29.2266 253.422 28.8281C253.141 28.4219 252.742 28.2188 252.227 28.2188C251.953 28.2188 251.762 28.2969 251.652 28.4531C251.551 28.6016 251.5 28.875 251.5 29.2734ZM251.5 36.0234V37.1367C251.5 38.1602 251.574 38.8398 251.723 39.1758C251.871 39.5117 252.172 39.6797 252.625 39.6797C253.812 39.6797 254.406 38.9844 254.406 37.5938C254.406 35.8594 253.742 34.9922 252.414 34.9922C252.07 34.9922 251.832 35.0664 251.699 35.2148C251.566 35.3633 251.5 35.6328 251.5 36.0234ZM272.371 36.75H266.863C266.621 36.75 266.5 36.8555 266.5 37.0664C266.5 37.5742 266.773 38.0547 267.32 38.5078C267.875 38.9531 268.469 39.1758 269.102 39.1758C269.477 39.1758 269.891 39.1055 270.344 38.9648C270.805 38.8164 271.184 38.6367 271.48 38.4258C271.746 38.2383 271.957 38.1445 272.113 38.1445C272.316 38.1445 272.516 38.2695 272.711 38.5195C272.906 38.7695 273.004 39.0273 273.004 39.293C273.004 39.8555 272.652 40.3984 271.949 40.9219C270.707 41.8516 269.273 42.3164 267.648 42.3164C266.008 42.3164 264.633 41.8398 263.523 40.8867C262.984 40.418 262.539 39.8516 262.188 39.1875C261.727 38.3047 261.496 37.375 261.496 36.3984C261.496 35.0859 261.895 33.9062 262.691 32.8594C263.379 31.9531 264.254 31.2773 265.316 30.832C266.113 30.4961 266.977 30.3281 267.906 30.3281C269.391 30.3281 270.652 30.75 271.691 31.5938C272.215 32.0156 272.637 32.5156 272.957 33.0938C273.324 33.75 273.508 34.3906 273.508 35.0156C273.508 35.5234 273.402 35.9414 273.191 36.2695C272.98 36.5898 272.707 36.75 272.371 36.75ZM267.168 34.5586H268.352C268.852 34.5586 269.102 34.3281 269.102 33.8672C269.102 33.4453 268.98 33.1016 268.738 32.8359C268.496 32.5703 268.18 32.4375 267.789 32.4375C267.352 32.4375 267.008 32.6094 266.758 32.9531C266.523 33.2734 266.406 33.5977 266.406 33.9258C266.406 34.1602 266.461 34.3242 266.57 34.418C266.688 34.5117 266.887 34.5586 267.168 34.5586ZM280.961 30.3164C282.32 30.3164 283.473 30.6602 284.418 31.3477C284.918 31.7148 285.266 32.1367 285.461 32.6133C285.664 33.082 285.766 33.7305 285.766 34.5586L285.742 36.3047C285.742 37.5156 285.828 38.3008 286 38.6602C286.086 38.832 286.168 38.9414 286.246 38.9883C286.324 39.0352 286.488 39.0781 286.738 39.1172C286.988 39.1562 287.113 39.3203 287.113 39.6094C287.113 39.9844 286.961 40.375 286.656 40.7812C286.359 41.1875 285.973 41.5273 285.496 41.8008C284.91 42.1445 284.297 42.3164 283.656 42.3164C282.836 42.3164 282.188 42.0352 281.711 41.4727C281.547 41.2695 281.395 41.168 281.254 41.168C281.098 41.168 280.891 41.2656 280.633 41.4609C279.852 42.0312 278.965 42.3164 277.973 42.3164C276.949 42.3164 276.121 42.0977 275.488 41.6602C275.074 41.3711 274.746 40.9961 274.504 40.5352C274.262 40.0664 274.141 39.5781 274.141 39.0703C274.141 38.2578 274.469 37.5391 275.125 36.9141C276.148 35.9297 277.68 35.4336 279.719 35.4258C280.172 35.4258 280.457 35.3828 280.574 35.2969C280.691 35.2031 280.75 34.9922 280.75 34.6641C280.75 33.8359 280.664 33.2383 280.492 32.8711C280.32 32.4961 280.039 32.3086 279.648 32.3086C279.414 32.3086 279.203 32.3789 279.016 32.5195C278.836 32.6602 278.609 32.918 278.336 33.293C277.641 34.2852 276.914 34.7812 276.156 34.7812C275.773 34.7812 275.461 34.668 275.219 34.4414C274.977 34.2148 274.855 33.918 274.855 33.5508C274.855 33.1758 275.004 32.8008 275.301 32.4258C275.605 32.0508 276.016 31.7227 276.531 31.4414C277.945 30.6914 279.422 30.3164 280.961 30.3164ZM280.176 37.1016C279.832 37.1016 279.531 37.2422 279.273 37.5234C279.023 37.8047 278.898 38.1406 278.898 38.5312C278.898 38.9062 278.988 39.2109 279.168 39.4453C279.348 39.6719 279.586 39.7852 279.883 39.7852C280.508 39.7852 280.82 39.2578 280.82 38.2031C280.82 37.7734 280.773 37.4844 280.68 37.3359C280.594 37.1875 280.426 37.1094 280.176 37.1016ZM294.309 30.9961V37.3477C294.309 38.707 294.758 39.3867 295.656 39.3867C295.883 39.3867 296.105 39.3242 296.324 39.1992C296.543 39.0664 296.695 38.9062 296.781 38.7188C296.953 38.3438 297.039 37.5078 297.039 36.2109C297.039 34.9297 296.996 34.0547 296.91 33.5859C296.879 33.3906 296.824 33.25 296.746 33.1641C296.668 33.0703 296.52 32.9648 296.301 32.8477C295.855 32.6133 295.633 32.3164 295.633 31.957C295.633 31.4727 296.016 31.1367 296.781 30.9492C298.234 30.5898 299.668 30.4102 301.082 30.4102C301.871 30.4102 302.266 30.8281 302.266 31.6641C302.266 31.75 302.262 31.9258 302.254 32.1914C302.238 32.5664 302.227 33.0234 302.219 33.5625V38.7305C302.219 38.9961 302.445 39.2383 302.898 39.457C303.281 39.6445 303.473 39.918 303.473 40.2773C303.473 40.9805 302.641 41.5234 300.977 41.9062C300 42.1328 299.055 42.2461 298.141 42.2461C297.766 42.2461 297.508 42.2031 297.367 42.1172C297.234 42.0312 297.156 41.8633 297.133 41.6133C297.094 41.1289 296.945 40.8867 296.688 40.8867C296.594 40.8867 296.508 40.9102 296.43 40.957C296.352 40.9961 296.113 41.1523 295.715 41.4258C294.926 41.9648 294.078 42.2344 293.172 42.2344C291.672 42.2344 290.613 41.8008 289.996 40.9336C289.473 40.207 289.211 38.9844 289.211 37.2656C289.211 36.625 289.215 36.0781 289.223 35.625C289.223 35.3594 289.223 35.1797 289.223 35.0859C289.223 34.4141 289.16 33.9219 289.035 33.6094C288.918 33.2891 288.699 33.0391 288.379 32.8594C288.074 32.7031 287.879 32.5781 287.793 32.4844C287.715 32.3906 287.676 32.2617 287.676 32.0977C287.676 31.5039 288.125 31.1094 289.023 30.9141C290.555 30.5781 292.086 30.4102 293.617 30.4102C294.078 30.4102 294.309 30.6055 294.309 30.9961ZM311.113 33.3984V37.3594C311.113 37.8281 311.227 38.2109 311.453 38.5078C311.688 38.8047 311.984 38.9531 312.344 38.9531C312.648 38.9531 313.051 38.8125 313.551 38.5312C313.668 38.4609 313.785 38.4258 313.902 38.4258C314.09 38.4258 314.262 38.5391 314.418 38.7656C314.574 38.9922 314.652 39.2383 314.652 39.5039C314.652 39.9883 314.387 40.4531 313.855 40.8984C312.746 41.8438 311.402 42.3164 309.824 42.3164C308.574 42.3164 307.57 41.9648 306.812 41.2617C306.055 40.5508 305.676 39.6172 305.676 38.4609V33.0469C305.676 32.8672 305.652 32.7578 305.605 32.7188C305.566 32.6719 305.457 32.6484 305.277 32.6484H304.07C303.844 32.6484 303.699 32.6133 303.637 32.543C303.574 32.4648 303.543 32.2891 303.543 32.0156V31.5C303.551 31.2656 303.641 31.0938 303.812 30.9844L309.18 27.6094C309.312 27.5391 309.477 27.5039 309.672 27.5039H310.621C310.816 27.5039 310.945 27.5508 311.008 27.6445C311.078 27.7305 311.113 27.9062 311.113 28.1719V29.7539C311.113 29.9883 311.148 30.1406 311.219 30.2109C311.297 30.2812 311.457 30.3164 311.699 30.3164H313.867C314.156 30.3164 314.344 30.3711 314.43 30.4805C314.516 30.582 314.559 30.8047 314.559 31.1484V31.8398C314.559 32.2148 314.504 32.4766 314.395 32.625C314.285 32.7656 314.086 32.8359 313.797 32.8359H311.676C311.457 32.8359 311.309 32.875 311.23 32.9531C311.152 33.0312 311.113 33.1797 311.113 33.3984ZM326.43 36.0938L324.883 40.3477C324.5 41.4023 324.113 42.2617 323.723 42.9258C323.34 43.5977 322.902 44.168 322.41 44.6367C321.395 45.6055 320.172 46.0898 318.742 46.0898C317.586 46.0898 316.648 45.7852 315.93 45.1758C315.375 44.707 315.098 44.1094 315.098 43.3828C315.098 42.7812 315.289 42.2773 315.672 41.8711C316.062 41.457 316.539 41.25 317.102 41.25C317.664 41.25 318.117 41.4375 318.461 41.8125C318.625 41.9844 318.734 42.1367 318.789 42.2695C318.844 42.4023 318.926 42.6953 319.035 43.1484C319.121 43.4922 319.316 43.6641 319.621 43.6641C319.863 43.6641 320.066 43.5586 320.23 43.3477C320.395 43.1367 320.477 42.875 320.477 42.5625C320.477 42.1953 320.273 41.582 319.867 40.7227L317.043 34.7109C316.746 34.0859 316.523 33.6953 316.375 33.5391C316.227 33.3828 315.898 33.1914 315.391 32.9648C315.234 32.9023 315.098 32.7812 314.98 32.6016C314.871 32.4141 314.816 32.2344 314.816 32.0625C314.816 31.3672 315.508 30.8945 316.891 30.6445C317.812 30.4805 318.863 30.3984 320.043 30.3984C320.871 30.3984 321.523 30.4844 322 30.6562C322.641 30.8828 322.961 31.2695 322.961 31.8164C322.961 32.0117 322.871 32.2422 322.691 32.5078C322.52 32.7578 322.434 32.9805 322.434 33.1758C322.434 33.3633 322.473 33.5586 322.551 33.7617C322.637 33.9648 322.812 34.3086 323.078 34.793C323.375 35.3398 323.637 35.6133 323.863 35.6133C324.105 35.6133 324.355 35.375 324.613 34.8984C324.871 34.4141 325 33.9492 325 33.5039C325 33.1445 324.902 32.8516 324.707 32.625C324.41 32.2734 324.262 31.9727 324.262 31.7227C324.262 31.3242 324.527 31.0078 325.059 30.7734C325.59 30.5312 326.301 30.4102 327.191 30.4102C328.848 30.4102 329.676 30.8086 329.676 31.6055C329.676 31.8945 329.59 32.1289 329.418 32.3086C329.254 32.4805 328.949 32.6445 328.504 32.8008C328.129 32.9414 327.832 33.1758 327.613 33.5039C327.27 34.0273 326.875 34.8906 326.43 36.0938Z" fill="white"/>
<path d="M224.746 25.3711C225.832 25.3711 226.766 25.5898 227.547 26.0273C228.328 26.457 228.719 26.9727 228.719 27.5742C228.719 27.918 228.582 28.2266 228.309 28.5C228.043 28.7734 227.742 28.9102 227.406 28.9102C227.258 28.9102 227.133 28.8867 227.031 28.8398C226.938 28.793 226.68 28.625 226.258 28.3359C225.891 28.0859 225.508 27.9609 225.109 27.9609C224.711 27.9609 224.379 28.1094 224.113 28.4062C223.855 28.7031 223.727 29.0742 223.727 29.5195C223.727 30.1289 223.961 30.5586 224.43 30.8086C224.555 30.8711 224.91 30.9414 225.496 31.0195C225.973 31.0742 226.211 31.3984 226.211 31.9922C226.211 32.6328 225.949 33.1055 225.426 33.4102C225.191 33.543 224.758 33.6523 224.125 33.7383C223.758 33.793 223.574 34.1484 223.574 34.8047C223.574 35.5859 223.82 36.3867 224.312 37.207C224.766 37.9492 225.352 38.5273 226.07 38.9414C226.727 39.3242 227.402 39.5156 228.098 39.5156C229.043 39.5156 229.875 39.2344 230.594 38.6719C231.242 38.1641 231.566 37.5234 231.566 36.75C231.566 36.375 231.418 36.0547 231.121 35.7891C230.832 35.5156 230.48 35.3789 230.066 35.3789C229.426 35.3789 228.871 35.7773 228.402 36.5742C228.199 36.918 227.988 37.0898 227.77 37.0898C227.488 37.0898 227.246 36.9258 227.043 36.5977C226.84 36.2617 226.738 35.8711 226.738 35.4258C226.738 34.4727 227.074 33.6211 227.746 32.8711C228.426 32.1211 229.406 31.5117 230.688 31.043C231.719 30.6602 232.352 30.3594 232.586 30.1406C232.859 29.8906 232.996 29.625 232.996 29.3438C232.996 29.1875 232.941 29.0508 232.832 28.9336C232.723 28.8164 232.594 28.7578 232.445 28.7578C232.383 28.7578 232.242 28.8008 232.023 28.8867C231.977 28.9023 231.922 28.9102 231.859 28.9102C231.727 28.9102 231.609 28.8633 231.508 28.7695C231.414 28.668 231.367 28.5469 231.367 28.4062C231.367 28.0703 231.527 27.7539 231.848 27.457C232.137 27.1836 232.516 26.9648 232.984 26.8008C233.453 26.6367 233.926 26.5547 234.402 26.5547C235.27 26.5547 236.027 26.7773 236.676 27.2227C237.043 27.4727 237.332 27.8086 237.543 28.2305C237.754 28.6445 237.859 29.082 237.859 29.543C237.859 30.2227 237.633 30.8789 237.18 31.5117C236.727 32.1445 236.102 32.6719 235.305 33.0938C234.734 33.4062 234.449 33.6758 234.449 33.9023C234.449 34.0664 234.641 34.2656 235.023 34.5C235.375 34.7188 235.652 35.0195 235.855 35.4023C236.066 35.7773 236.172 36.1836 236.172 36.6211C236.172 37.3555 235.891 38.1055 235.328 38.8711C234.492 40.0195 233.223 40.9062 231.52 41.5312C230.105 42.0547 228.512 42.3164 226.738 42.3164C224.402 42.3164 222.406 41.8828 220.75 41.0156C219.555 40.3984 218.629 39.4961 217.973 38.3086C217.543 37.5352 217.328 36.7109 217.328 35.8359C217.328 34.8906 217.637 34.082 218.254 33.4102C218.621 33.0039 219.008 32.6992 219.414 32.4961C219.703 32.3477 219.848 32.2031 219.848 32.0625C219.848 31.9922 219.809 31.8906 219.73 31.7578C219.254 30.9375 219.016 30.2422 219.016 29.6719C219.016 29.0938 219.18 28.5234 219.508 27.9609C219.844 27.3906 220.293 26.9141 220.855 26.5312C221.379 26.1797 221.992 25.8984 222.695 25.6875C223.398 25.4766 224.082 25.3711 224.746 25.3711Z" fill="#F76868"/>
</svg>
