<svg width="75" height="75" viewBox="0 0 75 75" fill="none" xmlns="http://www.w3.org/2000/svg">
<path d="M63.0781 66.5938H11.5156C10.5832 66.5938 9.68901 66.2234 9.0297 65.564C8.3704 64.9047 8 64.0105 8 63.0781V50.1875C8 49.2551 8.3704 48.3609 9.0297 47.7016C9.68901 47.0423 10.5832 46.6719 11.5156 46.6719H16.2031C17.1355 46.6719 18.0297 47.0423 18.689 47.7016C19.3484 48.3609 19.7188 49.2551 19.7188 50.1875V54.875H54.875V19.7188H19.7188V24.4062C19.7188 25.3387 19.3484 26.2329 18.689 26.8922C18.0297 27.5515 17.1355 27.9219 16.2031 27.9219H11.5156C10.5832 27.9219 9.68901 27.5515 9.0297 26.8922C8.3704 26.2329 8 25.3387 8 24.4062V11.5156C8 10.5832 8.3704 9.68901 9.0297 9.0297C9.68901 8.3704 10.5832 8 11.5156 8H63.0781C64.0105 8 64.9047 8.3704 65.564 9.0297C66.2234 9.68901 66.5938 10.5832 66.5938 11.5156V63.0781C66.5938 64.0105 66.2234 64.9047 65.564 65.564C64.9047 66.2234 64.0105 66.5938 63.0781 66.5938ZM11.5156 49.0156C11.2048 49.0156 10.9068 49.1391 10.687 49.3589C10.4672 49.5786 10.3438 49.8767 10.3438 50.1875V63.0781C10.3438 63.3889 10.4672 63.687 10.687 63.9068C10.9068 64.1265 11.2048 64.25 11.5156 64.25H63.0781C63.3889 64.25 63.687 64.1265 63.9068 63.9068C64.1265 63.687 64.25 63.3889 64.25 63.0781V11.5156C64.25 11.2048 64.1265 10.9068 63.9068 10.687C63.687 10.4672 63.3889 10.3438 63.0781 10.3438H11.5156C11.2048 10.3438 10.9068 10.4672 10.687 10.687C10.4672 10.9068 10.3438 11.2048 10.3438 11.5156V24.4062C10.3438 24.7171 10.4672 25.0151 10.687 25.2349C10.9068 25.4547 11.2048 25.5781 11.5156 25.5781H16.2031C16.5139 25.5781 16.812 25.4547 17.0318 25.2349C17.2515 25.0151 17.375 24.7171 17.375 24.4062V18.5469C17.375 18.2361 17.4985 17.938 17.7182 17.7182C17.938 17.4985 18.2361 17.375 18.5469 17.375H56.0469C56.3577 17.375 56.6557 17.4985 56.8755 17.7182C57.0953 17.938 57.2188 18.2361 57.2188 18.5469V56.0469C57.2188 56.3577 57.0953 56.6557 56.8755 56.8755C56.6557 57.0953 56.3577 57.2188 56.0469 57.2188H18.5469C18.2361 57.2188 17.938 57.0953 17.7182 56.8755C17.4985 56.6557 17.375 56.3577 17.375 56.0469V50.1875C17.375 49.8767 17.2515 49.5786 17.0318 49.3589C16.812 49.1391 16.5139 49.0156 16.2031 49.0156H11.5156Z" fill="#4B4D53"/>
<path d="M22.4056 47.5004L13.0306 38.1254C12.8109 37.9056 12.6875 37.6076 12.6875 37.2969C12.6875 36.9861 12.8109 36.6881 13.0306 36.4684L22.4056 27.0934C22.5695 26.9295 22.7783 26.8179 23.0056 26.7727C23.2329 26.7276 23.4684 26.7508 23.6825 26.8394C23.8966 26.9281 24.0797 27.0783 24.2084 27.2709C24.3372 27.4636 24.406 27.6901 24.406 27.9219V31.4375H47.8435C48.7759 31.4375 49.6701 31.8079 50.3294 32.4672C50.9887 33.1265 51.3591 34.0207 51.3591 34.9531V39.6406C51.3591 40.573 50.9887 41.4672 50.3294 42.1266C49.6701 42.7859 48.7759 43.1563 47.8435 43.1563H24.406V46.6719C24.406 46.9036 24.3372 47.1301 24.2084 47.3228C24.0797 47.5155 23.8966 47.6656 23.6825 47.7543C23.4684 47.843 23.2329 47.8662 23.0056 47.821C22.7783 47.7758 22.5695 47.6642 22.4056 47.5004V47.5004ZM15.5162 37.2969L22.0622 43.843V41.9844C22.0622 41.6736 22.1857 41.3755 22.4055 41.1557C22.6253 40.936 22.9233 40.8125 23.2341 40.8125H47.8435C48.1543 40.8125 48.4524 40.689 48.6721 40.4693C48.8919 40.2495 49.0154 39.9514 49.0154 39.6406V34.9531C49.0154 34.6423 48.8919 34.3443 48.6721 34.1245C48.4524 33.9047 48.1543 33.7812 47.8435 33.7812H23.2341C22.9233 33.7812 22.6253 33.6578 22.4055 33.438C22.1857 33.2182 22.0622 32.9202 22.0622 32.6094V30.7508L15.5162 37.2969Z" fill="#4B4D53"/>
</svg>
