<svg width="638" height="613" viewBox="0 0 638 613" fill="none" xmlns="http://www.w3.org/2000/svg">
<path d="M466.3 0C466.3 0 466.6 2.4 467.1 6.9C467.3 9.1 467.3 12 467.4 15.3C467.3 18.6 467.3 22.5 466.7 26.8C466.4 28.9 466.3 31.3 465.8 33.6C465.3 35.9 465 38.5 464.3 41C463.7 43.5 463.1 46.3 462.2 49C461.8 50.4 461.4 51.8 460.9 53.2C460.5 54.6 459.9 56 459.4 57.5C455.2 69 449 81.6 440.5 94.2C438.4 97.4 436.1 100.5 433.7 103.7C432.5 105.3 431.2 106.8 430 108.4C429.4 109.2 428.7 110 428.1 110.8C427.4 111.6 426.8 112.3 426.1 113.1C425.4 113.9 424.7 114.7 424.1 115.4L423.1 116.6C423.1 116.6 422.6 117 422.8 116.9L422.7 117L422.5 117.3L422 117.8C420.7 119.2 419.4 120.6 418 122.1C415 125.1 411.7 128.4 408.6 131.2C395.9 143 381.5 153.9 366.2 164C350.6 174.1 334.5 183.4 318.5 192.4C302.5 201.4 286.5 210.2 271.3 219.4C256.1 228.5 241.8 238.1 228.9 248.5L226.5 250.4L226.2 250.6L226 250.7C226.1 250.6 225.6 251.1 226.2 250.5L225.5 251.1L224.2 252.2L221.6 254.4C221.2 254.8 220.7 255.2 220.3 255.5L219.3 256.5L217.2 258.4C216.5 259 215.8 259.6 215.1 260.4C213.7 261.8 212.2 263.2 210.8 264.6C205.2 270.2 200 276.1 195.3 282.1C194.7 282.9 194.1 283.6 193.5 284.3C192.9 285.1 192.4 285.8 191.8 286.6C191.2 287.4 190.7 288.1 190.1 288.9C189.5 289.7 189.1 290.4 188.5 291.2C186.4 294.3 184.5 297.4 182.6 300.5C179 306.8 176 313.1 173.5 319.5C173.2 320.3 172.9 321.1 172.6 321.9L172.1 323.1L171.7 324.3C171.2 325.9 170.7 327.5 170.2 329.1C169.8 330.7 169.4 332.3 169 333.9L168.7 335.1V335.2C168.7 335.3 168.7 334.7 168.7 335L168.6 335.4L168.5 336.1C168.3 337 168.1 337.9 168 338.8C167.9 339.5 167.7 340.2 167.6 340.9C167.5 341.2 167.5 341.6 167.4 342L167.2 343.2C167 344.8 166.8 346.3 166.6 347.9C166.3 351 166.2 354.1 166.1 357.1C166 369.3 168.1 380.8 171.4 390.6C172.2 393.1 173.1 395.4 174 397.7C174.5 398.8 174.9 400 175.5 401C176 402.1 176.5 403.2 177 404.2C179.1 408.3 181.3 411.9 183.5 415.2C184.6 416.8 185.7 418.3 186.8 419.7C187.9 421.1 189 422.3 190 423.6C192.1 425.9 194 427.8 195.6 429.3C196.4 430 197.1 430.7 197.8 431.3C198.4 431.9 199 432.3 199.4 432.7C200.3 433.5 200.7 433.9 200.7 433.9C200.7 433.9 200.1 433.8 199 433.5C198.4 433.4 197.7 433.2 196.9 433C196.1 432.8 195.1 432.5 194 432.1C189.7 430.7 183.3 428.1 176 423.1C168.7 418.2 160.4 410.8 153 400.5C145.6 390.2 139 377 135.2 361.4C134.2 357.5 133.5 353.4 132.9 349.2C132.7 347.1 132.4 345 132.3 342.8L132.2 341.2C132.2 340.7 132.1 340.1 132.1 339.5C132.1 338.3 132 337.1 132 335.9C132 334.9 132 333.9 132 333V332.3V331.9C132 332.1 132 331.4 132 331.4V331.2L132.1 329.5C132.2 327.3 132.4 325 132.5 322.8C132.8 320.6 133 318.3 133.3 316L133.5 314.3L133.8 312.6C134 311.5 134.2 310.3 134.4 309.2C134.6 308.1 134.8 306.9 135 305.7C135.3 304.6 135.6 303.4 135.8 302.3C136.4 300 136.9 297.7 137.6 295.4C138.3 293.1 139 290.8 139.8 288.5C140.6 286.2 141.5 284 142.3 281.7C143.2 279.5 144.2 277.2 145.2 275L145.9 273.3L146.7 271.7C147.2 270.6 147.8 269.5 148.3 268.4C148.9 267.3 149.4 266.2 150 265.1C150.6 264 151.2 262.9 151.8 261.9C152.4 260.8 153 259.7 153.6 258.6C154.2 257.5 154.9 256.5 155.5 255.4C160.7 246.9 166.6 238.7 173.1 231C174.7 229.1 176.4 227.2 178.1 225.3C178.9 224.4 179.9 223.4 180.8 222.4L183.6 219.5L185 218.1L186.3 216.9L188.8 214.5L190 213.3L190.6 212.7L191.6 211.8L194.4 209.2C209.5 195.6 226.2 183.9 243 173.7C259.9 163.5 277 154.8 293.6 146.6C310.2 138.4 326.2 130.9 341.2 123.2C356.2 115.5 370.2 107.8 382.8 99.7C386 97.6 388.8 95.7 391.8 93.7C393.4 92.5 395 91.4 396.5 90.3L397.1 89.9L397.4 89.7L397.5 89.6C397.7 89.4 397.3 89.8 397.4 89.7L398.5 88.9C399.2 88.4 399.9 87.8 400.6 87.3C401.3 86.8 402 86.3 402.7 85.7C403.4 85.2 404 84.6 404.7 84.1C406 83 407.4 82 408.7 80.9C411.3 78.7 413.8 76.6 416.2 74.3C425.9 65.6 434 56.5 440.5 47.9C443.8 43.6 446.6 39.4 449.2 35.4C450.6 33.4 451.6 31.4 452.7 29.5C453.8 27.6 454.8 25.8 455.7 24C456.2 23.1 456.6 22.2 457.1 21.4C457.5 20.6 457.9 19.7 458.3 18.9C459.1 17.3 459.8 15.7 460.4 14.3C461 12.8 461.5 11.5 462 10.3C462.5 9 463 7.9 463.4 6.8C465.4 2.3 466.3 0 466.3 0Z" fill="#9A9A9A"/>
<path d="M454.8 89C454.8 89 454.6 90.4 454.2 93C453.9 94.3 453.8 95.9 453.5 97.7C453.2 99.5 453.1 101.6 452.9 103.9C452.6 108.5 452.4 114.1 452.7 120.4C453.1 126.7 453.8 133.6 455.2 141.1C456.6 148.6 458.6 156.5 461.1 164.8C461.4 165.8 461.8 166.9 462.1 167.9L462.6 169.5L462.9 170.3C462.9 170.3 463 170.5 462.9 170.2V170.3L463 170.5L463.1 170.9C463.9 173.1 464.6 175.5 465.4 177.5C466.2 179.6 467 181.8 467.8 183.9C468.7 186.1 469.5 188.3 470.4 190.6C474 199.6 477.9 208.9 482 218.6C486 228.3 490.1 238.4 493.8 248.9L495.1 252.8L496.4 256.8C497.3 259.5 498.1 262.2 498.9 264.9C500.5 270.3 501.9 275.9 503.1 281.4C505.4 292.5 506.9 303.9 506.9 315.1C506.9 320.7 506.7 326.2 506 331.6C505.7 334.3 505.3 337 504.8 339.6L504.6 340.6C504.5 341.4 504.6 340.9 504.5 341.1V341.2L504.4 341.4L504.3 341.8C504.2 342.4 504 343 503.9 343.5C503.8 344.1 503.6 344.6 503.5 345.2L503.3 346.1L503 347.1C502.3 349.8 501.6 352.5 500.7 354.8C500.3 356 499.9 357.2 499.4 358.3C498.9 359.4 498.4 360.6 498 361.7C496.1 366.2 493.9 370.4 491.6 374.2C486.9 381.9 481.5 388.2 476.2 393C470.9 397.9 465.5 401.2 461.1 403.5C460 404 458.9 404.6 457.9 405C457.4 405.3 456.9 405.4 456.4 405.6C455.9 405.8 455.4 406 455 406.1C454.1 406.4 453.3 406.7 452.5 407C451.7 407.3 451 407.4 450.4 407.6C447.8 408.3 446.5 408.5 446.5 408.5C446.5 408.5 447.5 407.5 449.4 405.8C450.4 405 451.4 403.8 452.7 402.5C454 401.2 455.3 399.6 456.7 397.8C459.5 394.2 462.7 389.7 465.5 384.3C468.3 378.9 470.9 372.6 472.8 365.5C473.7 362 474.6 358.3 475.2 354.5C475.4 353.5 475.5 352.6 475.7 351.6C475.8 350.6 475.9 349.6 476 348.7C476.3 346.7 476.3 344.9 476.5 343V342.3V341.4C476.5 340.8 476.5 340.2 476.6 339.6C476.6 339 476.6 338.4 476.7 337.8V337.4V337.2V337.1C476.7 337.2 476.7 336.7 476.7 337.4V336.6C476.6 334.5 476.7 332.4 476.5 330.2C476.4 328.1 476.2 325.9 476 323.7C475.9 322.6 475.7 321.5 475.6 320.4C475.5 319.3 475.4 318.2 475.2 317.1C474.6 312.6 473.7 308.1 472.8 303.5C472.3 301.2 471.8 298.9 471.2 296.5C470.7 294.2 470 291.8 469.4 289.5C468.1 284.8 466.6 280 465.1 275.2C464.3 272.8 463.5 270.4 462.7 268L461.5 264.4L460.2 260.7C456.8 250.9 453.1 240.9 449.6 230.8C446.1 220.7 442.9 210.4 440.3 200.2C439.6 197.6 439.1 195.1 438.5 192.5C437.9 189.9 437.4 187.4 437 184.8C436.8 183.5 436.5 182.1 436.3 181C436.1 179.8 436 178.6 435.8 177.4L435.7 177V176.8V176.7C435.6 176.3 435.7 176.5 435.6 176.4L435.5 175.5C435.4 174.9 435.3 174.2 435.3 173.6C435.2 172.3 435 171.1 434.9 169.9C433.9 160 433.9 150.5 434.7 141.9C435.5 133.2 437.1 125.4 439.2 118.6C441.3 111.9 443.8 106.3 446.2 101.9C446.8 100.8 447.4 99.8 447.9 98.8C448.4 97.8 449.1 97 449.6 96.2C450.7 94.6 451.6 93.2 452.4 92.3C453.9 90.1 454.8 89 454.8 89Z" fill="#9A9A9A"/>
<path d="M187.1 359.2C187.1 359.2 187.9 360.4 189.3 362.6C190.7 364.8 192.9 368 195.7 372.1C198.5 376.1 202.1 380.9 206.3 386.2C207.4 387.5 208.5 388.8 209.7 390.2C210.9 391.5 212.1 392.9 213.4 394.4C214.7 395.8 216 397.2 217.4 398.7C218.8 400.1 220.2 401.6 221.7 403C227.6 408.8 234.4 414.7 242 420.2C243 420.9 243.9 421.5 244.9 422.2L246.3 423.2L247.9 424.2C248.9 424.9 250 425.5 251 426.2C252 426.8 253.1 427.4 254.1 428C255.1 428.6 256.2 429.2 257.3 429.8C258.4 430.4 259.5 431 260.6 431.5C262.8 432.6 265.1 433.7 267.4 434.7C276.7 438.8 286.7 441.9 297.1 443.6C302.3 444.5 307.6 444.9 312.9 445C318.2 445.1 323.5 444.7 328.7 444C330.1 443.8 331.6 443.6 332.8 443.3L336.6 442.5L340.5 441.5C341.8 441.2 343 440.7 344.3 440.4C349.4 438.8 354.4 436.9 359.2 434.7C364 432.5 368.7 430 373.2 427.3C377.7 424.6 382 421.7 386.2 418.7C390.4 415.7 394.3 412.5 398.1 409.4C400 407.7 402 406.1 403.7 404.5C404.6 403.7 405.5 402.9 406.3 402.1C407.2 401.3 408 400.4 408.9 399.6C415.6 393 421.5 386.3 426.4 379.6C431.3 373 435.2 366.5 438.2 360.5C441.2 354.5 443.4 349 444.8 344.3C445.2 343.1 445.5 342 445.8 341C446.1 339.9 446.3 339 446.6 338C446.8 337.1 447.1 336.2 447.3 335.4C447.4 334.6 447.6 333.9 447.7 333.2C448.2 330.6 448.5 329.2 448.5 329.2C448.5 329.2 448.5 330.6 448.4 333.3C448.4 334 448.4 334.7 448.3 335.5C448.2 336.3 448.1 337.2 448 338.2C447.9 339.2 447.8 340.2 447.7 341.3C447.6 342.4 447.3 343.6 447.1 344.8C446.3 349.7 444.8 355.7 442.4 362.2C440 368.8 436.6 376 432.1 383.4C427.6 390.8 422 398.3 415.3 405.7C414.5 406.6 413.7 407.6 412.8 408.5C411.9 409.4 411 410.3 410.1 411.3C408.3 413.2 406.5 414.8 404.7 416.6L403.6 417.4L402.9 418.1L401.4 419.4C400.4 420.3 399.4 421.2 398.4 422C397.4 422.9 396.4 423.7 395.3 424.6C394.3 425.4 393.2 426.3 392.1 427.1C383.6 433.8 374.1 440 363.7 445.1C358.5 447.6 353.1 449.8 347.4 451.6C346 452 344.6 452.5 343.2 452.9L338.9 454C337.4 454.3 335.9 454.6 334.4 454.9C333.6 455.1 332.9 455.2 332.2 455.3L330.1 455.6C324.2 456.4 318.2 456.9 312.3 456.7C306.4 456.6 300.5 456 294.8 454.9C289.1 453.8 283.5 452.4 278.1 450.6L276.1 449.9L274.1 449.2C272.8 448.7 271.5 448.2 270.2 447.7C267.6 446.6 265.1 445.5 262.6 444.3C260.1 443.1 257.8 441.8 255.4 440.5C254.2 439.8 253.1 439.1 251.9 438.5C250.8 437.8 249.6 437.1 248.5 436.4C247.4 435.7 246.3 434.9 245.2 434.2C244.2 433.5 243.2 432.7 242.2 432L240.7 430.9C240.2 430.5 239.6 430.1 239.1 429.7C238.1 428.9 237.1 428.1 236.1 427.4C228.4 421.1 221.8 414.3 216.2 407.8C210.6 401.3 206.1 394.8 202.3 389C198.5 383.2 195.6 377.9 193.3 373.5C192.2 371.3 191.2 369.3 190.4 367.6C189.6 365.9 188.9 364.4 188.4 363.2C187.7 360.5 187.1 359.2 187.1 359.2Z" fill="#9A9A9A"/>
<path d="M228.7 338.3C228.7 338.3 228.8 338.4 229.1 338.7C229.3 339 229.7 339.4 230.2 339.9C231.1 340.8 232.8 342 235.1 342.7C237.4 343.4 240.3 343.7 243.5 343.2C245.1 342.9 246.8 342.5 248.3 341.7C248.7 341.5 249.2 341.3 249.6 341.1C250 340.9 250.4 340.7 250.8 340.5C251.6 340 252.5 339.5 253.3 338.9C256.7 336.6 260 333.5 263.9 330.1C265.8 328.4 268 326.6 270.4 325C272.8 323.3 275.5 321.8 278.6 320.6C281.6 319.4 285.1 318.6 288.9 318.7C289.8 318.7 290.8 318.8 291.7 318.9L293.1 319.2C293.5 319.3 293.8 319.3 294.2 319.4C295.2 319.7 296.2 320 297.1 320.3C297.9 320.6 298.7 321 299.5 321.3C302.6 322.8 305.3 324.4 307.7 326C310.2 327.6 312.4 329 314.6 329.9C315.7 330.4 316.6 330.7 317.6 330.9C318.1 331 318.5 331 319 331.1C319.2 331.1 319.4 331.1 319.7 331.1H320H320.2H320.3C320.4 331.1 319.7 331.2 320 331.1L321.1 331L321.6 330.9C321.8 330.9 321.8 330.8 321.9 330.8C322 330.7 322.2 330.7 322.4 330.7C322.6 330.7 322.9 330.5 323.1 330.5C324 330.2 325.1 329.7 326.1 329.1C328.2 327.9 330.4 326.2 332.9 324.6C335.4 322.9 338.1 321.2 341.4 320C342.2 319.7 343.1 319.4 343.9 319.2L344.2 319.1H344.4H344.5L344.8 319L345.3 318.9L346.3 318.7H346.6H347L347.7 318.6C348.2 318.6 348.7 318.5 349.1 318.5C350 318.5 350.8 318.5 351.6 318.7C354.9 319.1 357.9 320 360.5 321.2C365.7 323.6 369.7 326.5 373.3 329.1C373.7 329.4 374.2 329.7 374.6 330C375 330.3 375.5 330.6 375.9 330.9C376.7 331.5 377.5 332 378.4 332.5C380 333.5 381.6 334.3 383.2 335C386.3 336.4 389.2 337.2 391.6 337.3C394 337.4 396 337.1 397.3 336.6C398 336.4 398.4 336.2 398.8 336C399.1 335.9 399.3 335.8 399.3 335.8C399.3 335.8 399.2 335.9 398.9 336.2C398.6 336.4 398.2 336.8 397.6 337.2C396.4 338 394.5 339.1 391.8 339.6C389.1 340.2 385.6 340.1 381.8 339.3C379.9 338.9 378 338.3 375.9 337.6C374.9 337.2 373.9 336.8 372.8 336.3C372.3 336.1 371.8 335.8 371.3 335.6C370.8 335.4 370.3 335.1 369.8 334.9C365.8 333 361.6 330.8 357.3 329.5C355.2 328.9 353 328.4 351 328.4C350.5 328.4 350 328.5 349.5 328.5L348.9 328.6H348.6H348.5C348.4 328.6 348.3 328.6 348.3 328.7L347.3 328.9L346.8 329C347.3 328.9 346.9 329 347 329H346.9L346.7 329.1C346.2 329.3 345.8 329.4 345.3 329.7C343.4 330.6 341.5 331.9 339.3 333.6C337.2 335.3 334.8 337.2 332 339C330.5 339.9 329 340.8 327.2 341.5C326.7 341.7 326.3 341.9 325.8 342C325.2 342.2 324.7 342.3 324.1 342.4C323.8 342.5 323.5 342.5 323.3 342.6L322.8 342.7L321.7 342.9C322 342.9 321.2 343 321.3 342.9H321.2H321H320.6H319.8C319.3 342.9 318.8 342.9 318.3 342.9C317.3 342.8 316.3 342.7 315.3 342.5C313.4 342.1 311.5 341.5 309.9 340.7C306.6 339.2 303.9 337.4 301.5 335.8C299 334.2 296.8 332.6 294.7 331.6C294.2 331.3 293.7 331.1 293.1 330.9C292.6 330.7 292.3 330.6 291.9 330.4C291.6 330.3 291.2 330.2 290.9 330.1L290.4 330L290.1 329.9H290H289.9C289.6 329.8 290.2 330 290.1 329.9C289.6 329.8 289.1 329.7 288.6 329.7C287.6 329.6 286.6 329.6 285.5 329.8C284.5 329.9 283.4 330.2 282.3 330.5C280.1 331.1 278 332.1 275.8 333.3C273.7 334.4 271.7 335.8 269.6 337.2C265.5 340 261.3 342.9 256.9 344.9C255.8 345.4 254.7 345.9 253.6 346.3C253 346.5 252.4 346.7 251.9 346.9C251.4 347 250.8 347.2 250.3 347.3C248 347.8 245.9 348 243.9 347.9C239.9 347.7 236.6 346.5 234.2 345C231.8 343.5 230.5 341.7 229.8 340.4C229.4 339.8 229.3 339.3 229.1 338.9C228.8 338.4 228.7 338.3 228.7 338.3Z" fill="#9A9A9A"/>
<path d="M240.9 345.5C240.9 345.5 241.5 345.9 242.6 346.6C243.7 347.4 245.3 348.5 247.3 349.9C249.3 351.3 251.7 353 254.4 354.9C257.1 356.8 260.3 358.8 263.7 360.7C265.4 361.7 267.3 362.5 269.2 363.4C271.1 364.2 273.2 365.1 275.3 365.8C276.4 366.2 277.4 366.6 278.5 366.9C279 367.1 279.5 367.2 280 367.4C280.6 367.6 281.2 367.8 281.8 367.9L282.7 368.2C283 368.3 283.2 368.3 283.5 368.4C284 368.5 284.6 368.7 285.1 368.8C286.2 369 287.4 369.3 288.6 369.5C293.3 370.4 298.4 370.9 303.6 371.2C308.8 371.5 314.2 371.5 319.7 371.5C322.4 371.5 325.2 371.5 327.9 371.5C330.6 371.5 333.3 371.5 335.9 371.4C338.5 371.3 341 371.2 343.4 370.8C345.8 370.5 348.2 370.1 350.4 369.5L351.2 369.3L351.6 369.2L351.8 369.1H351.9C351.9 369.1 351.8 369.2 351.9 369.1H352L352.9 368.8L353.4 368.7L353.8 368.6C354.8 368.3 355.9 367.8 356.9 367.4C358.9 366.5 361 365.4 362.9 364.3C366.7 362 370.2 359.4 373.3 356.9C374.9 355.6 376.3 354.4 377.7 353.1C379.1 351.9 380.4 350.7 381.6 349.5C384.1 347.2 386.2 345.2 387.9 343.5C389.7 341.8 391 340.5 392 339.6C393 338.7 393.5 338.2 393.5 338.2C393.5 338.2 393.2 338.8 392.5 340C391.8 341.1 390.9 342.8 389.6 344.9C388.3 347 386.7 349.5 384.8 352.3C382.8 355.1 380.5 358.2 377.7 361.5C376.3 363.1 374.8 364.8 373.1 366.4C371.4 368 369.6 369.7 367.6 371.3C365.6 372.9 363.5 374.4 361.1 375.8C359.9 376.5 358.7 377.1 357.3 377.8L356.8 378L356.4 378.2L355.5 378.6C354.8 378.9 354.1 379.1 353.4 379.4C350.7 380.4 347.9 381.1 345.1 381.7C342.3 382.2 339.4 382.6 336.6 382.9C333.8 383.2 330.9 383.3 328.1 383.4C325.3 383.5 322.6 383.5 319.8 383.6C314.2 383.7 308.5 383.6 302.9 383.2C300.1 383 297.3 382.6 294.5 382.2C291.7 381.7 289 381.2 286.3 380.5C285 380.2 283.6 379.8 282.3 379.4C281.6 379.2 281 378.9 280.3 378.7L279.3 378.4L278.4 378.1C277.8 377.9 277.2 377.6 276.7 377.4L276.5 377.3H276.4H276.3L276.1 377.2L275.7 377L274.8 376.6C273.6 376.1 272.5 375.5 271.4 374.9C266.9 372.6 262.9 369.9 259.5 367.2C256.1 364.4 253.3 361.6 251 359C248.7 356.4 246.8 354.1 245.4 352.1C243.9 350.1 242.8 348.6 242.1 347.5C241.3 346.1 240.9 345.5 240.9 345.5Z" fill="#9A9A9A"/>
<path d="M276.3 258.9C276.3 258.9 276.4 258.9 276.5 258.8C276.7 258.7 276.9 258.6 277.2 258.4C277.9 258.1 278.9 257.6 280.2 257.3C281.6 257 283.3 256.8 285.3 256.8C287.3 256.9 289.5 257.2 291.8 257.9C293 258.2 294.1 258.6 295.3 259.1C296.5 259.6 297.7 260.1 298.9 260.6C300.1 261.2 301.3 261.8 302.5 262.4C303.6 263 304.8 263.6 306 264.2C308.3 265.4 310.7 266.5 312.9 267.2C315.2 268 317.3 268.5 319.3 268.5C319.8 268.5 320.3 268.5 320.8 268.5H321.2C321.1 268.5 321.4 268.5 321 268.5H321.1H321.4L321.9 268.4H322.2H322.3L322.9 268.3L323.6 268.1C324.1 267.9 324.6 267.8 325.1 267.6C327.2 266.8 329.3 265.6 331.5 264.2C332.6 263.5 333.7 262.8 334.8 262.1C335.9 261.4 337 260.7 338.3 259.9C339.5 259.2 340.8 258.6 342 258.1C343.2 257.6 344.4 257.2 345.5 256.8C346.6 256.4 347.8 256.2 348.8 256C349.9 255.8 350.9 255.6 351.9 255.6C353.8 255.4 355.5 255.5 356.9 255.7C358.3 255.9 359.3 256.2 360 256.5C360.3 256.6 360.6 256.7 360.8 256.8C361 256.9 361.1 256.9 361.1 256.9C361.1 256.9 360.7 256.9 360 257.1C359.3 257.2 358.3 257.5 357.2 257.9C356 258.3 354.7 258.9 353.2 259.7C352.5 260.1 351.7 260.6 350.9 261.1C350.1 261.6 349.3 262.2 348.4 262.8C346.7 264 345 265.4 343.4 266.9C342.7 267.6 341.8 268.6 340.8 269.5C339.9 270.4 338.9 271.4 337.8 272.4C335.6 274.4 333.1 276.4 329.9 278C329.1 278.4 328.3 278.8 327.4 279.1L326.1 279.6C325.6 279.8 325.1 279.9 324.6 280L324.2 280.1L323.9 280.2L323.4 280.3L323.1 280.4H323L322.6 280.5L321.9 280.6C320.9 280.7 320 280.7 319 280.8C315.1 280.7 311.5 279.7 308.5 278.4C305.4 277.1 302.8 275.4 300.4 273.7C299.2 272.9 298.1 272 297.1 271.2C296.1 270.4 295.1 269.6 294.1 268.8C293.2 268 292.2 267.3 291.4 266.6C290.5 265.9 289.7 265.3 288.8 264.7C287.1 263.5 285.5 262.5 284.1 261.8C282.6 261 281.2 260.5 280.1 260.1C278.9 259.7 277.9 259.5 277.2 259.4C276.7 259 276.3 258.9 276.3 258.9Z" fill="#9A9A9A"/>
<path d="M14.7105 558.71H31.3109C33.0959 558.647 34.7234 558.404 36.1934 557.982C36.8234 557.813 37.3799 557.729 37.8629 557.729C39.5639 557.729 41.2124 558.995 42.8084 561.529C44.4254 564.063 45.2339 566.671 45.2339 569.353C45.2339 571.19 44.6774 572.531 43.5644 573.376C42.7244 574.009 41.7164 574.326 40.5404 574.326C39.4274 574.326 38.4614 574.02 37.6424 573.407C36.8234 572.774 36.0149 571.739 35.2169 570.303C34.5239 568.994 33.9779 568.139 33.5789 567.738C33.1799 567.336 32.6969 567.136 32.1299 567.136C31.3529 567.136 30.7965 567.463 30.4605 568.118C30.1245 568.772 29.9565 569.849 29.9565 571.348V589.086C29.9565 590.902 30.1455 592.222 30.5235 593.045C30.9015 593.869 31.6154 594.502 32.6654 594.946C33.7994 595.431 34.5659 595.896 34.9649 596.339C35.3849 596.762 35.5949 597.353 35.5949 598.113C35.5949 599.633 34.5659 600.763 32.5079 601.502C30.4709 602.241 27.3315 602.611 23.0895 602.611C17.8815 602.611 14.0175 602.178 11.4975 601.312C9.37648 600.594 8.31599 599.433 8.31599 597.828C8.31599 596.962 8.69399 596.287 9.44998 595.801C9.63898 595.695 10.3845 595.442 11.6865 595.041C12.4845 594.808 13.0305 594.365 13.3245 593.71C13.6395 593.056 13.8915 591.799 14.0805 589.941C14.2485 588.294 14.406 585.633 14.553 581.959C14.7 578.264 14.7735 575.065 14.7735 572.362C14.7735 570.462 14.6265 569.11 14.3325 568.308C14.0385 567.505 13.5555 567.104 12.8835 567.104C12.0645 567.104 11.2665 567.695 10.4895 568.878C9.08249 571.032 7.92749 572.457 7.02449 573.154C5.95349 573.977 4.91399 574.389 3.90599 574.389C2.772 574.389 1.8375 573.967 1.1025 573.122C0.367499 572.256 0 571.158 0 569.828C0 568.519 0.294 567.083 0.881999 565.52C1.47 563.937 2.2575 562.48 3.24449 561.149C4.84049 558.995 6.41549 557.919 7.96949 557.919C8.38949 557.919 8.87249 557.982 9.41848 558.109C10.5525 558.341 11.4765 558.499 12.1905 558.584C12.9255 558.668 13.7655 558.71 14.7105 558.71Z" fill="#9A9A9A"/>
<path d="M60.1334 570.588C61.2464 570.588 61.9184 570.747 62.1494 571.063C62.4014 571.38 62.6219 572.394 62.8109 574.104C62.9159 575.033 63.2414 575.498 63.7874 575.498C64.2074 575.498 64.6064 575.192 64.9844 574.579C66.6644 571.94 68.8589 570.62 71.5679 570.62C73.4789 570.62 75.0434 571.243 76.2614 572.489C76.8494 573.101 77.3324 573.893 77.7104 574.864C78.0884 575.814 78.2774 576.733 78.2774 577.62C78.2774 578.612 78.0464 579.637 77.5844 580.692C77.1224 581.727 76.5239 582.582 75.7889 583.258C74.4449 584.546 72.7964 585.19 70.8434 585.19C69.7724 585.19 68.8694 585 68.1344 584.62C67.4204 584.24 66.4754 583.469 65.2994 582.308C64.8584 581.864 64.4489 581.643 64.0709 581.643C63.4829 581.643 63.0944 581.98 62.9054 582.656C62.7374 583.311 62.6534 584.704 62.6534 586.837C62.6534 590.026 62.7689 592.201 62.9999 593.362C63.1469 593.995 63.3464 594.439 63.5984 594.692C63.8714 594.925 64.4384 595.167 65.2994 595.421C67.1894 595.991 68.1344 596.983 68.1344 598.398C68.1344 599.264 67.8299 600.024 67.2209 600.679C66.6119 601.312 65.8034 601.735 64.7954 601.946C62.7794 602.368 59.8184 602.579 55.9124 602.579C52.1954 602.579 49.3709 602.252 47.4389 601.597C45.7169 601.006 44.8559 599.982 44.8559 598.525C44.8559 597.427 45.4859 596.445 46.7459 595.579C47.3549 595.178 47.7749 594.819 48.0059 594.502C48.2369 594.164 48.3944 593.71 48.4784 593.14C48.8144 591.219 48.9824 587.661 48.9824 582.466C48.9824 581.516 48.8774 580.84 48.6674 580.439C48.4574 580.017 48.0374 579.679 47.4074 579.425C45.9164 578.834 45.1709 577.979 45.1709 576.86C45.1709 575.846 45.6854 574.98 46.7144 574.262C47.7434 573.523 49.4654 572.795 51.8804 572.077C55.1144 571.106 57.8654 570.609 60.1334 570.588Z" fill="#9A9A9A"/>
<path d="M97.5868 572.204V589.371C97.5868 593.045 98.7943 594.882 101.209 594.882C101.818 594.882 102.417 594.713 103.005 594.376C103.593 594.017 104.002 593.584 104.233 593.077C104.695 592.063 104.926 589.804 104.926 586.299C104.926 582.836 104.811 580.471 104.58 579.204C104.496 578.676 104.349 578.296 104.139 578.063C103.929 577.81 103.53 577.525 102.942 577.208C101.745 576.575 101.146 575.772 101.146 574.801C101.146 573.492 102.175 572.584 104.233 572.077C108.139 571.106 111.993 570.62 115.794 570.62C117.915 570.62 118.975 571.75 118.975 574.009C118.975 574.241 118.965 574.716 118.944 575.434C118.902 576.448 118.87 577.683 118.849 579.14V593.109C118.849 593.827 119.458 594.481 120.676 595.072C121.705 595.579 122.22 596.318 122.22 597.29C122.22 599.19 119.983 600.658 115.51 601.692C112.885 602.305 110.344 602.611 107.887 602.611C106.879 602.611 106.186 602.495 105.808 602.262C105.451 602.03 105.241 601.576 105.178 600.9C105.073 599.591 104.674 598.937 103.981 598.937C103.729 598.937 103.498 599 103.288 599.127C103.078 599.232 102.438 599.655 101.367 600.394C99.2458 601.851 96.9673 602.579 94.5313 602.579C90.4994 602.579 87.6539 601.407 85.9949 599.063C84.5879 597.1 83.8844 593.795 83.8844 589.149C83.8844 587.418 83.8949 585.94 83.9159 584.715C83.9159 583.997 83.9159 583.511 83.9159 583.258C83.9159 581.442 83.7479 580.112 83.4119 579.267C83.0969 578.401 82.5089 577.725 81.6479 577.24C80.8289 576.817 80.3039 576.48 80.0729 576.226C79.8629 575.973 79.7579 575.624 79.7579 575.181C79.7579 573.576 80.9654 572.51 83.3804 571.982C87.4964 571.074 91.6124 570.62 95.7283 570.62C96.9673 570.62 97.5868 571.148 97.5868 572.204Z" fill="#9A9A9A"/>
<path d="M153.153 587.756H138.348C137.697 587.756 137.371 588.041 137.371 588.611C137.371 589.983 138.106 591.282 139.576 592.507C141.067 593.71 142.663 594.312 144.364 594.312C145.372 594.312 146.485 594.122 147.703 593.742C148.942 593.341 149.961 592.855 150.759 592.285C151.473 591.778 152.04 591.525 152.46 591.525C153.006 591.525 153.541 591.863 154.066 592.538C154.591 593.214 154.854 593.911 154.854 594.629C154.854 596.149 153.909 597.617 152.019 599.032C148.68 601.544 144.826 602.801 140.458 602.801C136.048 602.801 132.352 601.513 129.37 598.937C127.921 597.67 126.724 596.139 125.779 594.344C124.54 591.958 123.921 589.445 123.921 586.805C123.921 583.258 124.992 580.069 127.134 577.24C128.982 574.79 131.334 572.964 134.19 571.76C136.332 570.852 138.652 570.398 141.151 570.398C145.141 570.398 148.533 571.538 151.326 573.819C152.733 574.959 153.867 576.311 154.728 577.873C155.715 579.647 156.208 581.379 156.208 583.068C156.208 584.44 155.925 585.57 155.358 586.457C154.791 587.323 154.056 587.756 153.153 587.756ZM139.167 581.833H142.348C143.692 581.833 144.364 581.21 144.364 579.964C144.364 578.824 144.039 577.894 143.388 577.176C142.737 576.459 141.886 576.1 140.836 576.1C139.66 576.1 138.736 576.564 138.064 577.493C137.434 578.359 137.119 579.235 137.119 580.122C137.119 580.756 137.266 581.199 137.56 581.452C137.875 581.706 138.411 581.833 139.167 581.833Z" fill="#9A9A9A"/>
<path d="M187.992 558.014C194.544 558.014 197.82 559.376 197.82 562.1C197.82 562.839 197.652 563.44 197.316 563.905C196.98 564.37 196.339 564.887 195.394 565.457C194.575 565.964 194.05 566.629 193.819 567.452C193.609 568.276 193.504 569.944 193.504 572.457C193.504 573.935 193.777 574.843 194.323 575.181C194.638 575.392 195.111 575.519 195.741 575.561C196.392 575.603 197.904 575.624 200.277 575.624C202.44 575.624 203.784 575.508 204.309 575.276C204.834 575.044 205.096 574.463 205.096 573.534C205.096 570.747 204.97 568.804 204.718 567.706C204.466 566.608 203.973 565.858 203.238 565.457C202.314 564.929 201.705 564.486 201.411 564.127C201.117 563.747 200.97 563.25 200.97 562.638C200.97 561.772 201.295 560.991 201.946 560.294C202.597 559.576 203.448 559.09 204.498 558.837C206.682 558.309 209.422 558.045 212.719 558.045C216.583 558.045 219.429 558.404 221.256 559.122C223.104 559.819 224.028 560.917 224.028 562.416C224.028 563.683 223.377 564.633 222.075 565.267C221.256 565.647 220.72 566.017 220.468 566.376C220.216 566.713 220.017 567.357 219.87 568.308C219.786 568.836 219.681 571.179 219.555 575.339C219.429 579.499 219.366 582.804 219.366 585.253C219.366 589.54 219.523 592.264 219.838 593.425C220.006 594.059 220.195 594.481 220.405 594.692C220.615 594.903 221.277 595.326 222.39 595.959C223.188 596.403 223.587 597.078 223.587 597.986C223.587 599.591 222.631 600.763 220.72 601.502C218.83 602.22 215.754 602.579 211.491 602.579C207.753 602.579 204.991 602.21 203.206 601.471C201.589 600.795 200.781 599.75 200.781 598.335C200.781 597.131 201.4 596.192 202.639 595.516C203.248 595.178 203.658 594.84 203.868 594.502C204.099 594.164 204.319 593.541 204.529 592.633C204.907 590.86 205.096 588.685 205.096 586.109C205.096 584.778 204.897 583.955 204.498 583.638C204.12 583.321 203.112 583.163 201.474 583.163C197.715 583.163 195.321 583.374 194.292 583.796C193.872 583.965 193.609 584.462 193.504 585.285C193.378 586.299 193.315 587.544 193.315 589.023C193.315 591.43 193.651 593.161 194.323 594.217C194.554 594.555 195.1 594.988 195.961 595.516C196.843 596.023 197.284 596.857 197.284 598.018C197.284 599.496 196.266 600.626 194.229 601.407C192.192 602.189 189.283 602.579 185.503 602.579C182.059 602.579 179.245 602.22 177.061 601.502C176.116 601.186 175.371 600.742 174.825 600.172C174.3 599.581 174.037 598.937 174.037 598.24C174.037 597.543 174.205 597.005 174.541 596.624C174.877 596.244 175.612 595.759 176.746 595.167C177.334 594.872 177.744 594.492 177.975 594.027C178.227 593.563 178.416 592.781 178.542 591.683C178.857 589.213 179.014 585.982 179.014 581.991C179.014 581.252 179.004 580.376 178.983 579.362C178.899 574.294 178.857 571.401 178.857 570.683C178.878 568.867 178.72 567.674 178.384 567.104C178.069 566.513 177.219 565.869 175.833 565.172C174.909 564.729 174.447 564.063 174.447 563.176C174.447 561.044 176.505 559.566 180.621 558.742C183.015 558.256 185.472 558.014 187.992 558.014Z" fill="#9A9A9A"/>
<path d="M244.093 570.367C247.747 570.367 250.845 571.296 253.386 573.154C254.73 574.146 255.664 575.287 256.189 576.575C256.735 577.842 257.008 579.594 257.008 581.833L256.945 586.552C256.945 589.825 257.176 591.947 257.638 592.919C257.869 593.383 258.09 593.679 258.3 593.805C258.51 593.932 258.951 594.048 259.623 594.154C260.295 594.259 260.631 594.703 260.631 595.484C260.631 596.498 260.221 597.554 259.402 598.652C258.604 599.75 257.565 600.668 256.284 601.407C254.709 602.336 253.06 602.801 251.338 602.801C249.133 602.801 247.39 602.041 246.109 600.52C245.668 599.971 245.259 599.697 244.881 599.697C244.461 599.697 243.904 599.961 243.211 600.489C241.111 602.03 238.728 602.801 236.061 602.801C233.31 602.801 231.084 602.21 229.383 601.027C228.27 600.246 227.388 599.232 226.737 597.986C226.086 596.719 225.76 595.4 225.76 594.027C225.76 591.831 226.642 589.888 228.406 588.199C231.157 585.538 235.273 584.198 240.754 584.176C241.972 584.176 242.739 584.06 243.054 583.828C243.369 583.575 243.526 583.005 243.526 582.118C243.526 579.879 243.295 578.264 242.833 577.271C242.371 576.258 241.615 575.751 240.565 575.751C239.935 575.751 239.368 575.941 238.864 576.321C238.381 576.701 237.772 577.398 237.037 578.412C235.168 581.094 233.215 582.434 231.178 582.434C230.149 582.434 229.309 582.128 228.658 581.516C228.007 580.903 227.682 580.101 227.682 579.109C227.682 578.095 228.081 577.081 228.879 576.068C229.698 575.054 230.8 574.167 232.186 573.407C235.987 571.38 239.956 570.367 244.093 570.367ZM241.983 588.706C241.059 588.706 240.25 589.086 239.557 589.846C238.885 590.606 238.549 591.514 238.549 592.57C238.549 593.584 238.791 594.407 239.274 595.041C239.757 595.653 240.397 595.959 241.195 595.959C242.875 595.959 243.715 594.534 243.715 591.683C243.715 590.522 243.589 589.741 243.337 589.339C243.106 588.938 242.655 588.727 241.983 588.706Z" fill="#9A9A9A"/>
<path d="M280.224 572.584V590.986C280.224 592.443 280.35 593.51 280.602 594.186C280.875 594.861 281.41 595.484 282.208 596.054C282.859 596.519 283.29 596.92 283.5 597.258C283.731 597.575 283.846 597.986 283.846 598.493C283.846 601.217 280.413 602.579 273.546 602.579C269.85 602.579 266.92 602.284 264.757 601.692C264.022 601.481 263.424 601.112 262.962 600.584C262.521 600.056 262.3 599.454 262.3 598.778C262.3 598.208 262.416 597.765 262.647 597.448C262.878 597.131 263.466 596.624 264.411 595.928C265.062 595.442 265.524 594.65 265.797 593.552C266.07 592.454 266.206 590.817 266.206 588.643C266.206 587.946 266.154 586.647 266.049 584.747C265.965 582.825 265.902 581.706 265.86 581.389C265.734 580.523 265.146 579.858 264.096 579.394C262.794 578.824 262.143 577.979 262.143 576.86C262.143 575.529 262.993 574.537 264.694 573.882C267.046 572.974 269.566 572.204 272.254 571.57C274.942 570.937 277.021 570.62 278.491 570.62C279.646 570.62 280.224 571.275 280.224 572.584ZM273.987 558.71C275.814 558.71 277.263 559.059 278.334 559.756C279.405 560.431 279.94 561.35 279.94 562.511C279.94 564.137 279.132 565.425 277.515 566.376C274.953 567.875 271.855 568.624 268.222 568.624C266.689 568.624 265.471 568.329 264.568 567.738C263.35 566.977 262.741 565.922 262.741 564.57C262.741 562.754 264.033 561.329 266.616 560.294C269.241 559.238 271.698 558.71 273.987 558.71Z" fill="#9A9A9A"/>
<path d="M300.415 570.588C301.528 570.588 302.2 570.747 302.431 571.063C302.683 571.38 302.903 572.394 303.092 574.104C303.197 575.033 303.523 575.498 304.069 575.498C304.489 575.498 304.888 575.192 305.266 574.579C306.946 571.94 309.14 570.62 311.849 570.62C313.76 570.62 315.325 571.243 316.543 572.489C317.131 573.101 317.614 573.893 317.992 574.864C318.37 575.814 318.559 576.733 318.559 577.62C318.559 578.612 318.328 579.637 317.866 580.692C317.404 581.727 316.805 582.582 316.07 583.258C314.726 584.546 313.078 585.19 311.125 585.19C310.054 585.19 309.151 585 308.416 584.62C307.702 584.24 306.757 583.469 305.581 582.308C305.14 581.864 304.731 581.643 304.353 581.643C303.765 581.643 303.376 581.98 303.187 582.656C303.019 583.311 302.935 584.704 302.935 586.837C302.935 590.026 303.051 592.201 303.282 593.362C303.429 593.995 303.628 594.439 303.88 594.692C304.153 594.925 304.72 595.167 305.581 595.421C307.471 595.991 308.416 596.983 308.416 598.398C308.416 599.264 308.112 600.024 307.503 600.679C306.894 601.312 306.085 601.735 305.077 601.946C303.061 602.368 300.1 602.579 296.194 602.579C292.477 602.579 289.653 602.252 287.721 601.597C285.999 601.006 285.138 599.982 285.138 598.525C285.138 597.427 285.768 596.445 287.028 595.579C287.637 595.178 288.057 594.819 288.288 594.502C288.519 594.164 288.676 593.71 288.76 593.14C289.096 591.219 289.264 587.661 289.264 582.466C289.264 581.516 289.159 580.84 288.949 580.439C288.739 580.017 288.319 579.679 287.689 579.425C286.198 578.834 285.453 577.979 285.453 576.86C285.453 575.846 285.967 574.98 286.996 574.262C288.025 573.523 289.747 572.795 292.162 572.077C295.396 571.106 298.147 570.609 300.415 570.588Z" fill="#9A9A9A"/>
<path d="M355.949 557C358.868 557 361.378 557.591 363.478 558.774C365.578 559.935 366.628 561.329 366.628 562.955C366.628 563.884 366.26 564.718 365.525 565.457C364.811 566.196 364.003 566.566 363.1 566.566C362.701 566.566 362.365 566.502 362.092 566.376C361.84 566.249 361.147 565.795 360.013 565.014C359.026 564.338 357.997 564 356.926 564C355.855 564 354.962 564.401 354.248 565.204C353.555 566.006 353.209 567.009 353.209 568.213C353.209 569.86 353.839 571.021 355.099 571.697C355.435 571.866 356.39 572.056 357.965 572.267C359.246 572.415 359.887 573.291 359.887 574.896C359.887 576.627 359.183 577.905 357.776 578.729C357.146 579.087 355.981 579.383 354.28 579.615C353.293 579.763 352.799 580.724 352.799 582.498C352.799 584.609 353.461 586.774 354.784 588.991C356.002 590.997 357.577 592.56 359.509 593.679C361.273 594.713 363.089 595.231 364.958 595.231C367.499 595.231 369.736 594.471 371.668 592.95C373.411 591.578 374.282 589.846 374.282 587.756C374.282 586.742 373.883 585.876 373.085 585.158C372.308 584.419 371.363 584.05 370.25 584.05C368.528 584.05 367.037 585.127 365.777 587.281C365.231 588.21 364.664 588.674 364.076 588.674C363.32 588.674 362.669 588.231 362.123 587.344C361.577 586.436 361.304 585.38 361.304 584.176C361.304 581.6 362.207 579.299 364.013 577.271C365.84 575.244 368.476 573.597 371.92 572.33C374.692 571.296 376.393 570.483 377.023 569.891C377.758 569.216 378.125 568.498 378.125 567.738C378.125 567.315 377.978 566.946 377.684 566.629C377.39 566.312 377.044 566.154 376.645 566.154C376.477 566.154 376.099 566.27 375.511 566.502C375.385 566.544 375.238 566.566 375.07 566.566C374.713 566.566 374.398 566.439 374.125 566.186C373.873 565.911 373.747 565.584 373.747 565.204C373.747 564.296 374.177 563.44 375.038 562.638C375.815 561.899 376.834 561.308 378.094 560.864C379.354 560.421 380.624 560.199 381.905 560.199C384.236 560.199 386.273 560.801 388.016 562.005C389.003 562.68 389.78 563.588 390.347 564.729C390.914 565.848 391.198 567.03 391.198 568.276C391.198 570.113 390.589 571.887 389.371 573.597C388.153 575.308 386.473 576.733 384.331 577.873C382.798 578.718 382.031 579.446 382.031 580.059C382.031 580.502 382.546 581.041 383.575 581.674C384.52 582.265 385.265 583.078 385.811 584.113C386.378 585.127 386.662 586.225 386.662 587.407C386.662 589.392 385.906 591.419 384.394 593.489C382.147 596.593 378.734 598.989 374.156 600.679C370.355 602.094 366.071 602.801 361.304 602.801C355.025 602.801 349.66 601.629 345.208 599.285C341.995 597.617 339.506 595.178 337.742 591.968C336.587 589.878 336.01 587.65 336.01 585.285C336.01 582.73 336.839 580.544 338.498 578.729C339.485 577.63 340.525 576.807 341.617 576.258C342.394 575.857 342.782 575.466 342.782 575.086C342.782 574.896 342.677 574.621 342.467 574.262C341.186 572.045 340.546 570.166 340.546 568.624C340.546 567.062 340.987 565.52 341.869 564C342.772 562.459 343.979 561.17 345.491 560.136C346.898 559.186 348.547 558.425 350.437 557.855C352.327 557.285 354.164 557 355.949 557Z" fill="#9A9A9A"/>
<path d="M425.69 601.914L421.469 601.946C418.508 601.988 416.345 602.051 414.98 602.136C413.762 602.241 412.891 602.294 412.366 602.294C411.085 602.294 410.066 601.967 409.31 601.312C408.575 600.658 408.208 599.876 408.208 598.968C408.208 598.377 408.344 597.913 408.617 597.575C408.89 597.237 409.552 596.709 410.602 595.991C411.211 595.569 411.631 594.914 411.862 594.027C412.093 593.119 412.345 591.187 412.618 588.231C413.017 583.627 413.216 577.958 413.216 571.222C413.216 568.751 413.048 567.115 412.712 566.312C412.397 565.489 411.641 564.813 410.444 564.285C409.058 563.694 408.365 562.828 408.365 561.688C408.365 560.759 408.775 559.998 409.594 559.407C410.434 558.816 411.505 558.52 412.807 558.52C413.521 558.52 414.434 558.552 415.547 558.615C417.395 558.7 419.39 558.742 421.532 558.742C423.107 558.742 426.205 558.679 430.825 558.552C432.274 558.51 433.586 558.489 434.762 558.489C437.555 558.489 439.802 558.721 441.503 559.186C443.225 559.629 444.716 560.389 445.976 561.466C448.034 563.219 449.063 565.563 449.063 568.498C449.063 569.955 448.759 571.38 448.15 572.774C447.541 574.146 446.722 575.244 445.693 576.068C444.958 576.659 444.59 577.198 444.59 577.683C444.59 578.211 445.031 578.655 445.913 579.014C447.635 579.71 449.2 580.882 450.607 582.529C452.056 584.24 452.78 586.383 452.78 588.959C452.78 592 451.678 594.777 449.473 597.29C446.554 600.605 442.238 602.262 436.526 602.262C435.749 602.262 433.838 602.21 430.793 602.104C428.021 601.998 426.32 601.935 425.69 601.914ZM427.864 567.548V574.072C427.864 575.107 427.99 575.836 428.242 576.258C428.515 576.68 428.977 576.891 429.628 576.891C431.182 576.891 432.326 576.416 433.061 575.466C433.796 574.495 434.164 572.985 434.164 570.937C434.164 568.952 433.786 567.421 433.03 566.344C432.274 565.246 431.203 564.697 429.817 564.697C429.082 564.697 428.567 564.908 428.273 565.33C428 565.732 427.864 566.471 427.864 567.548ZM427.864 585.792V588.801C427.864 591.567 428.063 593.404 428.462 594.312C428.861 595.22 429.67 595.674 430.888 595.674C434.08 595.674 435.676 593.795 435.676 590.036C435.676 585.348 433.891 583.005 430.321 583.005C429.397 583.005 428.756 583.205 428.399 583.606C428.042 584.008 427.864 584.736 427.864 585.792Z" fill="#9A9A9A"/>
<path d="M483.965 587.756H469.16C468.509 587.756 468.184 588.041 468.184 588.611C468.184 589.983 468.919 591.282 470.389 592.507C471.88 593.71 473.476 594.312 475.177 594.312C476.185 594.312 477.298 594.122 478.516 593.742C479.755 593.341 480.773 592.855 481.571 592.285C482.285 591.778 482.852 591.525 483.272 591.525C483.818 591.525 484.354 591.863 484.879 592.538C485.404 593.214 485.666 593.911 485.666 594.629C485.666 596.149 484.721 597.617 482.831 599.032C479.492 601.544 475.639 602.801 471.271 602.801C466.861 602.801 463.165 601.513 460.183 598.937C458.734 597.67 457.537 596.139 456.592 594.344C455.353 591.958 454.733 589.445 454.733 586.805C454.733 583.258 455.804 580.069 457.946 577.24C459.794 574.79 462.146 572.964 465.002 571.76C467.144 570.852 469.465 570.398 471.964 570.398C475.954 570.398 479.345 571.538 482.138 573.819C483.545 574.959 484.679 576.311 485.54 577.873C486.527 579.647 487.021 581.379 487.021 583.068C487.021 584.44 486.737 585.57 486.17 586.457C485.603 587.323 484.868 587.756 483.965 587.756ZM469.979 581.833H473.161C474.505 581.833 475.177 581.21 475.177 579.964C475.177 578.824 474.851 577.894 474.2 577.176C473.549 576.459 472.699 576.1 471.649 576.1C470.473 576.1 469.549 576.564 468.877 577.493C468.247 578.359 467.932 579.235 467.932 580.122C467.932 580.756 468.079 581.199 468.373 581.452C468.688 581.706 469.223 581.833 469.979 581.833Z" fill="#9A9A9A"/>
<path d="M507.055 570.367C510.709 570.367 513.806 571.296 516.347 573.154C517.691 574.146 518.626 575.287 519.151 576.575C519.697 577.842 519.97 579.594 519.97 581.833L519.907 586.552C519.907 589.825 520.138 591.947 520.6 592.919C520.831 593.383 521.051 593.679 521.261 593.805C521.471 593.932 521.912 594.048 522.584 594.154C523.256 594.259 523.592 594.703 523.592 595.484C523.592 596.498 523.183 597.554 522.364 598.652C521.566 599.75 520.526 600.668 519.245 601.407C517.67 602.336 516.022 602.801 514.3 602.801C512.095 602.801 510.352 602.041 509.071 600.52C508.63 599.971 508.22 599.697 507.842 599.697C507.422 599.697 506.866 599.961 506.173 600.489C504.073 602.03 501.689 602.801 499.022 602.801C496.271 602.801 494.045 602.21 492.344 601.027C491.231 600.246 490.349 599.232 489.698 597.986C489.047 596.719 488.722 595.4 488.722 594.027C488.722 591.831 489.604 589.888 491.368 588.199C494.119 585.538 498.235 584.198 503.716 584.176C504.934 584.176 505.7 584.06 506.015 583.828C506.33 583.575 506.488 583.005 506.488 582.118C506.488 579.879 506.257 578.264 505.795 577.271C505.333 576.258 504.577 575.751 503.527 575.751C502.897 575.751 502.33 575.941 501.826 576.321C501.343 576.701 500.734 577.398 499.999 578.412C498.13 581.094 496.177 582.434 494.14 582.434C493.111 582.434 492.271 582.128 491.62 581.516C490.969 580.903 490.643 580.101 490.643 579.109C490.643 578.095 491.042 577.081 491.84 576.068C492.659 575.054 493.762 574.167 495.148 573.407C498.949 571.38 502.918 570.367 507.055 570.367ZM504.944 588.706C504.02 588.706 503.212 589.086 502.519 589.846C501.847 590.606 501.511 591.514 501.511 592.57C501.511 593.584 501.752 594.407 502.235 595.041C502.718 595.653 503.359 595.959 504.157 595.959C505.837 595.959 506.677 594.534 506.677 591.683C506.677 590.522 506.551 589.741 506.299 589.339C506.068 588.938 505.616 588.727 504.944 588.706Z" fill="#9A9A9A"/>
<path d="M542.933 572.204V589.371C542.933 593.045 544.141 594.882 546.556 594.882C547.165 594.882 547.763 594.713 548.351 594.376C548.939 594.017 549.349 593.584 549.58 593.077C550.042 592.063 550.273 589.804 550.273 586.299C550.273 582.836 550.157 580.471 549.926 579.204C549.842 578.676 549.695 578.296 549.485 578.063C549.275 577.81 548.876 577.525 548.288 577.208C547.091 576.575 546.493 575.772 546.493 574.801C546.493 573.492 547.522 572.584 549.58 572.077C553.486 571.106 557.339 570.62 561.14 570.62C563.261 570.62 564.322 571.75 564.322 574.009C564.322 574.241 564.311 574.716 564.29 575.434C564.248 576.448 564.217 577.683 564.196 579.14V593.109C564.196 593.827 564.805 594.481 566.023 595.072C567.052 595.579 567.566 596.318 567.566 597.29C567.566 599.19 565.33 600.658 560.857 601.692C558.232 602.305 555.691 602.611 553.234 602.611C552.226 602.611 551.533 602.495 551.155 602.262C550.798 602.03 550.588 601.576 550.525 600.9C550.42 599.591 550.021 598.937 549.328 598.937C549.076 598.937 548.845 599 548.635 599.127C548.425 599.232 547.784 599.655 546.713 600.394C544.592 601.851 542.314 602.579 539.878 602.579C535.846 602.579 533 601.407 531.341 599.063C529.934 597.1 529.231 593.795 529.231 589.149C529.231 587.418 529.241 585.94 529.262 584.715C529.262 583.997 529.262 583.511 529.262 583.258C529.262 581.442 529.094 580.112 528.758 579.267C528.443 578.401 527.855 577.725 526.994 577.24C526.175 576.817 525.65 576.48 525.419 576.226C525.209 575.973 525.104 575.624 525.104 575.181C525.104 573.576 526.312 572.51 528.727 571.982C532.843 571.074 536.959 570.62 541.075 570.62C542.314 570.62 542.933 571.148 542.933 572.204Z" fill="#9A9A9A"/>
<path d="M588.104 578.697V589.403C588.104 590.67 588.409 591.704 589.018 592.507C589.648 593.309 590.446 593.71 591.412 593.71C592.231 593.71 593.312 593.33 594.656 592.57C594.971 592.38 595.286 592.285 595.601 592.285C596.105 592.285 596.567 592.591 596.987 593.204C597.407 593.816 597.617 594.481 597.617 595.199C597.617 596.508 596.903 597.765 595.475 598.968C592.493 601.523 588.881 602.801 584.639 602.801C581.279 602.801 578.581 601.851 576.544 599.95C574.507 598.029 573.488 595.505 573.488 592.38V577.747C573.488 577.261 573.425 576.965 573.299 576.86C573.194 576.733 572.9 576.67 572.417 576.67H569.173C568.564 576.67 568.175 576.575 568.007 576.385C567.839 576.173 567.755 575.698 567.755 574.959V573.566C567.776 572.932 568.018 572.468 568.48 572.172L582.907 563.05C583.264 562.86 583.705 562.765 584.23 562.765H586.781C587.306 562.765 587.653 562.891 587.821 563.145C588.01 563.377 588.104 563.852 588.104 564.57V568.846C588.104 569.48 588.199 569.891 588.388 570.081C588.598 570.271 589.028 570.367 589.679 570.367H595.507C596.284 570.367 596.788 570.514 597.019 570.81C597.25 571.084 597.365 571.686 597.365 572.615V574.484C597.365 575.498 597.218 576.205 596.924 576.606C596.63 576.986 596.095 577.176 595.318 577.176H589.616C589.028 577.176 588.629 577.282 588.419 577.493C588.209 577.704 588.104 578.106 588.104 578.697Z" fill="#9A9A9A"/>
<path d="M629.274 585.982L625.117 597.48C624.088 600.33 623.048 602.653 621.998 604.448C620.969 606.264 619.793 607.805 618.47 609.072C615.74 611.691 612.454 613 608.611 613C605.503 613 602.983 612.176 601.051 610.529C599.56 609.262 598.814 607.647 598.814 605.683C598.814 604.057 599.329 602.695 600.358 601.597C601.408 600.478 602.689 599.919 604.201 599.919C605.712 599.919 606.93 600.425 607.854 601.439C608.295 601.903 608.59 602.315 608.737 602.674C608.884 603.033 609.104 603.825 609.398 605.05C609.629 605.979 610.154 606.443 610.973 606.443C611.624 606.443 612.17 606.158 612.611 605.588C613.052 605.018 613.273 604.311 613.273 603.466C613.273 602.474 612.727 600.816 611.635 598.493L604.043 582.244C603.245 580.555 602.647 579.499 602.248 579.077C601.849 578.655 600.967 578.137 599.602 577.525C599.182 577.356 598.814 577.029 598.499 576.543C598.205 576.036 598.058 575.551 598.058 575.086C598.058 573.207 599.917 571.929 603.634 571.253C606.112 570.81 608.936 570.588 612.107 570.588C614.333 570.588 616.086 570.821 617.367 571.285C619.089 571.897 619.951 572.943 619.951 574.421C619.951 574.949 619.709 575.572 619.226 576.29C618.764 576.965 618.533 577.567 618.533 578.095C618.533 578.602 618.638 579.13 618.848 579.679C619.079 580.228 619.552 581.157 620.266 582.466C621.064 583.944 621.767 584.683 622.376 584.683C623.027 584.683 623.699 584.039 624.392 582.751C625.085 581.442 625.432 580.186 625.432 578.982C625.432 578.011 625.169 577.219 624.644 576.606C623.846 575.656 623.447 574.843 623.447 574.167C623.447 573.09 624.161 572.235 625.589 571.602C627.017 570.947 628.928 570.62 631.322 570.62C635.774 570.62 638 571.697 638 573.851C638 574.632 637.769 575.265 637.307 575.751C636.866 576.216 636.047 576.659 634.85 577.081C633.842 577.462 633.044 578.095 632.456 578.982C631.532 580.397 630.471 582.73 629.274 585.982Z" fill="#9A9A9A"/>
</svg>
